<?xml version="1.0" standalone="no"?><!-- Generator: Gravit.io --><svg xmlns="http://www.w3.org/2000/svg" xmlns:xlink="http://www.w3.org/1999/xlink" style="isolation:isolate" viewBox="0 0 320 568" width="320px" height="568px"><defs><clipPath id="_clipPath_3j7nrk8D7VW450F2wSYdHmiNaYU6JjW8"><rect width="320" height="568"/></clipPath></defs><g clip-path="url(#_clipPath_3j7nrk8D7VW450F2wSYdHmiNaYU6JjW8)"><rect width="320" height="568" style="fill:rgb(174,236,239)"/><path d="M 82.5 429 L 237.5 429 C 249.918 429 260 439.082 260 451.5 L 260 451.5 C 260 463.918 249.918 474 237.5 474 L 82.5 474 C 70.082 474 60 463.918 60 451.5 L 60 451.5 C 60 439.082 70.082 429 82.5 429 Z" style="stroke:none;fill:#7C4EC4;stroke-miterlimit:10;"/><text transform="matrix(1,0,0,1,135.861,458.198)" style="font-family:'Nunito';font-weight:700;font-size:18px;font-style:normal;fill:#ffffff;stroke:none;">Login</text><path d="M 57.5 294 L 262.5 294 C 274.918 294 285 304.082 285 316.5 L 285 316.5 C 285 328.918 274.918 339 262.5 339 L 57.5 339 C 45.082 339 35 328.918 35 316.5 L 35 316.5 C 35 304.082 45.082 294 57.5 294 Z" style="stroke:none;fill:#FFFFFF;stroke-miterlimit:10;"/><text transform="matrix(1,0,0,1,52.957,323.198)" style="font-family:'Nunito';font-weight:400;font-size:18px;font-style:normal;fill:#aeecef;stroke:none;">Username or email</text><g><clipPath id="_clipPath_1TzkGMuuDA3iu2WVhLpgU3cDvBHykWlO"><path d=" M 196.604 221.011 C 199.627 221.011 201.325 222.679 201.325 222.679 L 201.778 220.334 C 201.778 220.418 206.339 220.503 208.053 221.578 C 208.336 221.777 207.854 231.528 207.854 231.528 L 201.439 232.32 C 201.439 232.32 200.647 228.221 197.057 228.221 C 194.995 228.221 193.212 230.427 193.212 234.835 C 193.212 239.556 196.04 241.166 198.047 241.166 C 200.592 241.166 202.514 239.018 202.908 238.452 C 204.716 240.318 208.121 243.397 208.121 243.397 C 208.121 243.397 205.606 249.304 198.021 249.304 C 191.802 249.304 185.018 244.469 185.018 234.832 C 184.986 224.712 191.007 221.011 196.604 221.011 Z  M 219.583 242.749 C 221.137 242.749 222.326 241.563 222.326 238.989 C 222.326 236.953 221.534 234.891 219.583 234.891 C 217.152 234.891 216.361 236.898 216.361 238.989 C 216.361 241.39 218.113 242.746 219.583 242.746 L 219.583 242.749 Z  M 219.443 228.306 C 225.095 228.306 229.217 232.095 229.217 238.794 C 229.217 244.306 226.285 249.561 219.495 249.561 C 213.419 249.561 209.121 246.395 209.121 238.709 C 209.099 231.072 213.761 228.303 219.443 228.303 L 219.443 228.306 Z  M 232.332 234.014 L 229.816 233.9 C 229.816 233.9 229.139 229.857 229.422 228.586 L 241.35 228.7 C 241.35 228.7 241.633 233.262 241.549 233.913 L 239.428 233.998 L 241.549 238.859 L 246.325 230.408 L 249.941 230.522 L 255.255 238.944 L 257.177 234.109 L 254.916 233.995 L 254.946 228.681 C 255.144 228.482 266.788 228.596 266.759 228.596 C 266.948 230.361 267.043 232.135 267.043 233.91 L 264.641 234.079 C 264.641 234.079 260.683 245.404 258.239 249.021 C 258.239 249.021 255.017 249.304 253.32 248.907 L 247.892 240.201 L 243.057 249.021 C 243.057 249.021 239.441 249.304 237.743 248.907 C 237.785 248.907 232.924 237.292 232.332 234.011 L 232.332 234.014 Z " fill="rgb(255,255,255)"/></clipPath><g clip-path="url(#_clipPath_1TzkGMuuDA3iu2WVhLpgU3cDvBHykWlO)"><g><rect x="183.63" y="218.92" width="84.826" height="32.053" transform="matrix(1,0,0,1,0,0)" fill="rgb(124,78,196)"/></g></g><clipPath id="_clipPath_uTyIZ4edyVVhE0gapMDfIyQqkfe40o5F"><path d=" M 53.156 243.632 C 53.326 243.462 56.04 243.238 56.04 243.238 L 55.473 226.759 C 55.473 226.759 53.156 226.843 52.957 226.645 C 52.957 226.645 53.127 220.822 53.127 220.822 L 64.66 221.021 L 64.944 226.674 L 62.145 226.957 L 62.344 231.339 L 70.033 231.707 L 69.948 226.788 L 67.602 226.563 C 67.573 226.563 67.208 221.109 67.208 221.109 L 80.322 221.223 C 80.322 221.223 80.208 226.677 80.123 226.677 C 80.123 226.677 77.191 227.156 77.191 227.156 L 77.699 242.928 L 80.442 243.254 L 80.442 248.962 C 80.442 248.962 68.062 249.131 68.062 249.047 C 68.062 249.047 67.948 243.225 67.948 243.225 L 70.746 242.941 L 70.632 237.683 L 62.52 237.458 C 62.52 237.458 62.435 243.28 62.634 243.28 C 62.634 243.28 65.318 243.111 65.318 243.394 C 65.318 243.394 65.885 248.652 65.687 248.737 C 65.687 248.737 53.251 248.538 53.251 248.538 C 53.251 248.538 53.016 243.792 53.156 243.632 Z  M 94.686 238.676 C 94.686 236.555 93.357 234.803 91.754 234.803 C 89.747 234.803 88.447 236.187 88.447 238.592 C 88.447 240.908 90.001 242.381 91.614 242.381 C 93.35 242.407 94.686 240.908 94.686 238.676 Z  M 81.328 238.478 C 81.328 230.903 86.189 228.671 90.262 228.671 C 92.39 228.72 94.452 229.42 96.169 230.678 L 96.169 228.671 C 96.169 228.671 104.62 228.388 104.62 228.586 C 104.62 228.586 104.903 233.9 104.845 233.9 C 104.845 233.9 101.961 234.493 101.913 234.578 C 101.799 234.663 101.997 243 101.997 243 C 101.997 243 105.304 242.97 105.36 243.225 C 105.415 243.479 105.444 248.822 105.275 248.822 C 105.161 248.822 96.231 248.652 96.231 248.538 C 96.231 248.424 95.836 246.502 95.836 246.502 C 95.836 246.502 94.253 249.131 90.184 249.131 C 86.483 249.135 81.328 246.704 81.328 238.478 Z  M 146.199 243.114 C 148.121 243.114 148.998 241.589 148.998 238.931 C 148.998 236.272 147.922 234.887 146.368 234.887 C 144.645 234.887 143.57 236.357 143.57 238.872 C 143.557 241.276 144.622 243.114 146.205 243.114 L 146.199 243.114 Z  M 135.203 252.236 L 135.174 235.588 L 132.242 235.588 C 132.212 233.043 131.958 229.681 131.958 229.681 C 131.958 229.681 140.778 228.241 140.976 228.436 C 141.061 228.661 141.823 230.189 141.823 230.189 C 141.823 230.189 142.983 228.436 147.036 228.436 C 150.711 228.436 156.159 230.838 156.159 239.064 C 156.159 247.375 151.324 249.268 147.255 249.268 C 143.863 249.268 142.618 247.998 142.618 247.998 L 142.618 251.956 C 142.618 251.956 146.492 252.409 146.662 252.523 C 146.886 252.722 146.776 257.922 146.831 257.922 C 146.886 257.922 132.359 258.006 132.414 257.922 L 132.189 252.494 L 135.203 252.236 Z  M 120.816 243.114 C 122.738 243.114 123.614 241.589 123.614 238.931 C 123.614 236.272 122.539 234.887 120.985 234.887 C 119.262 234.887 118.186 236.357 118.186 238.872 C 118.167 241.276 119.268 243.114 120.825 243.114 L 120.816 243.114 Z  M 109.82 252.236 L 109.79 235.588 L 106.858 235.588 C 106.829 233.043 106.575 229.681 106.575 229.681 C 106.575 229.681 115.394 228.241 115.593 228.436 C 115.678 228.661 116.44 230.189 116.44 230.189 C 116.44 230.189 117.6 228.436 121.653 228.436 C 125.328 228.436 130.775 230.838 130.775 239.064 C 130.775 247.375 125.941 249.268 121.871 249.268 C 118.48 249.268 117.235 247.998 117.235 247.998 L 117.235 251.956 C 117.235 251.956 121.109 252.409 121.278 252.523 C 121.503 252.722 121.392 257.922 121.448 257.922 C 121.503 257.922 106.976 258.006 107.031 257.922 L 106.806 252.494 L 109.82 252.236 Z  M 165.06 246.336 C 165.06 246.336 159.462 237.148 158.869 233.9 L 156.664 233.786 C 156.664 233.786 155.986 229.876 156.27 228.573 L 168.197 228.544 C 168.197 228.544 168.481 233.121 168.396 233.802 L 166.164 233.887 L 169.188 239.51 L 172.1 233.998 L 170.093 233.884 L 170.009 228.671 C 170.207 228.472 181.513 228.84 181.457 228.84 C 181.651 230.539 181.745 232.246 181.741 233.956 L 179.535 234.07 C 179.535 234.07 168.709 255.38 166.278 259 C 166.278 259 160.681 257.869 159.381 255.608 C 159.153 255.608 165.229 246.391 165.06 246.336 Z " fill="rgb(255,255,255)"/></clipPath><g clip-path="url(#_clipPath_uTyIZ4edyVVhE0gapMDfIyQqkfe40o5F)"><g><rect x="51.488" y="219.399" width="131.664" height="41.041" transform="matrix(1,0,0,1,0,0)" fill="rgb(1,1,1)"/></g></g></g><g><clipPath id="_clipPath_msBsAL8JX5goPUGfegsP9HCXE6cRsl6M"><path d=" M 123.83 134.038 C 123.291 135.648 114.156 136.243 113.029 136.348 C 107.548 136.831 98.785 137.692 94.549 133.252 C 90.628 129.17 92.183 122.104 96.109 118.586 C 100.191 114.87 105.566 115.038 110.403 115.954 C 113.198 116.51 115.946 117.282 118.621 118.264 C 119.482 118.586 127.973 121.98 127.7 122.829 C 127.645 122.829 123.83 134.057 123.83 134.057" fill="rgb(255,255,255)"/></clipPath><g clip-path="url(#_clipPath_msBsAL8JX5goPUGfegsP9HCXE6cRsl6M)"><g><rect x="89.588" y="112.697" width="40.806" height="26.742" transform="matrix(1,0,0,1,0,0)" fill="rgb(124,78,196)"/></g></g><path d=" M 106.062 137.122 C 101.646 137.122 97.069 136.416 94.295 133.487 C 92.624 131.705 91.765 129.31 91.923 126.873 C 92.068 123.608 93.484 120.53 95.868 118.295 C 100.345 114.233 106.347 114.796 110.471 115.576 C 113.286 116.135 116.052 116.914 118.745 117.905 C 119.216 118.085 121.557 119.014 123.737 119.998 C 127.973 121.912 128.196 122.476 128.072 122.921 L 127.973 123.175 C 127.546 124.352 125.545 130.192 124.201 134.156 C 123.935 134.942 122.486 135.946 113.568 136.67 L 113.091 136.707 L 112.806 136.707 C 110.793 136.912 108.452 137.122 106.062 137.122 Z  M 105.232 115.756 C 102.21 115.756 98.983 116.45 96.345 118.853 C 94.104 120.949 92.77 123.838 92.629 126.904 C 92.489 129.142 93.273 131.34 94.796 132.985 C 98.847 137.246 107.183 136.503 112.701 136.014 L 112.986 136.014 L 113.469 135.97 C 122.368 135.246 123.378 134.236 123.47 133.945 L 123.47 133.945 C 123.47 133.945 124.424 131.14 125.384 128.328 C 126.623 124.792 127.075 123.374 127.329 122.835 C 126.901 122.104 120.993 119.546 118.473 118.605 C 115.816 117.629 113.087 116.863 110.31 116.313 C 108.638 115.969 106.938 115.78 105.232 115.75 L 105.232 115.756 Z  M 127.347 122.711 C 127.338 122.745 127.338 122.782 127.347 122.816 L 127.391 122.723 L 127.347 122.711 Z " fill="rgb(94,56,131)"/><clipPath id="_clipPath_Pd0GWehQr9BwySoADSsvuRMJ4lUNRWkC"><path d=" M 111.121 131.784 C 107.951 132.106 102.903 132.694 100.482 130.118 C 98.277 127.752 99.194 123.566 101.448 121.416 C 103.863 119.162 106.229 119.373 108.972 119.856 C 110.583 120.122 113.927 121.039 115.314 122.649 C 116.701 124.259 120.876 130.279 111.121 131.784 Z " fill="rgb(255,255,255)"/></clipPath><g clip-path="url(#_clipPath_Pd0GWehQr9BwySoADSsvuRMJ4lUNRWkC)"><g><rect x="96.561" y="116.852" width="23.559" height="17.91" transform="matrix(1,0,0,1,0,0)" fill="rgb(245,234,215)"/></g></g><clipPath id="_clipPath_lTXPIwcwfouLCnPJaxwezMSsf27EarUL"><path d=" M 195.131 145.669 C 195.187 147.174 203.671 150.289 204.749 150.722 C 209.852 152.71 217.965 155.881 223.285 153.354 C 228.239 150.989 228.821 144.542 226.183 140.405 C 223.39 136.069 218.175 134.707 213.345 134.063 C 210.529 133.714 207.688 133.606 204.854 133.741 C 203.944 133.796 194.858 134.224 194.858 135.029 L 195.125 145.669" fill="rgb(255,255,255)"/></clipPath><g clip-path="url(#_clipPath_lTXPIwcwfouLCnPJaxwezMSsf27EarUL)"><g><rect x="192.17" y="130.985" width="38.242" height="25.968" transform="matrix(1,0,0,1,0,0)" fill="rgb(124,78,196)"/></g></g><path d=" M 218.578 154.636 C 213.859 154.636 208.533 152.562 204.65 151.05 L 204.129 150.852 C 195.93 147.694 194.79 146.455 194.765 145.662 L 194.765 145.662 L 194.499 135.023 C 194.499 134.527 194.499 133.92 204.538 133.382 L 204.835 133.382 C 207.692 133.242 210.556 133.35 213.394 133.704 C 217.94 134.323 223.532 135.599 226.493 140.206 C 228.046 142.69 228.495 145.708 227.731 148.536 C 227.132 150.794 225.569 152.675 223.458 153.676 C 221.923 154.356 220.256 154.684 218.578 154.636 Z  M 195.49 145.638 C 195.49 145.904 196.184 147.013 204.389 150.171 L 204.879 150.363 C 209.79 152.277 217.959 155.46 223.124 153.007 C 225.044 152.09 226.466 150.376 227.013 148.319 C 227.724 145.693 227.311 142.888 225.873 140.578 C 223.074 136.243 217.68 135.004 213.289 134.385 C 210.494 134.034 207.674 133.927 204.86 134.063 L 204.569 134.063 C 197.106 134.465 195.546 134.911 195.217 135.091 L 195.49 145.638 Z " fill="rgb(94,56,131)"/><clipPath id="_clipPath_XiaxdH2bl5GA328DaRKiXdpnhJqRIARC"><path d=" M 207.913 147.31 C 210.867 148.493 215.487 150.406 218.553 148.92 C 221.402 147.52 221.724 143.705 220.163 141.234 C 218.553 138.658 216.243 138.138 213.45 137.741 C 211.84 137.525 208.396 137.364 206.576 138.361 C 204.755 139.358 199.063 143.334 207.913 147.31 Z " fill="rgb(255,255,255)"/></clipPath><g clip-path="url(#_clipPath_XiaxdH2bl5GA328DaRKiXdpnhJqRIARC)"><g><rect x="200.395" y="134.899" width="23.379" height="17.26" transform="matrix(1,0,0,1,0,0)" fill="rgb(245,234,215)"/></g></g><clipPath id="_clipPath_1TeJran8UazZNKj7WV8In1iKHcRuRTFj"><path d=" M 142.149 113.948 C 142.31 113.842 136.507 104.658 139.461 97.505 C 140.805 94.551 145.369 92.08 144.998 89.336 C 144.193 85.788 136.829 87.831 134.841 88.636 C 123.774 93.095 117.215 110.771 124.796 126.513 C 124.74 126.569 142.136 113.941 142.136 113.941" fill="rgb(255,255,255)"/></clipPath><g clip-path="url(#_clipPath_1TeJran8UazZNKj7WV8In1iKHcRuRTFj)"><g><rect x="118.85" y="84.636" width="28.86" height="44.572" transform="matrix(1,0,0,1,0,0)" fill="rgb(205,207,208)"/></g></g><path d=" M 124.746 126.91 C 124.66 126.91 124.61 126.848 124.529 126.755 L 124.48 126.674 C 120.55 118.657 120.102 109.375 123.241 101.016 C 125.607 94.916 129.781 90.284 134.705 88.296 C 135.987 87.776 141.331 86.11 143.957 87.485 C 144.669 87.83 145.183 88.483 145.351 89.256 C 145.598 91.064 144.112 92.625 142.477 94.272 C 141.405 95.247 140.497 96.389 139.789 97.654 C 138.179 101.555 138.978 106.764 142.174 113.136 C 142.533 113.855 142.632 114.053 142.353 114.245 L 125.75 126.278 C 125.118 126.736 124.882 126.91 124.746 126.91 Z  M 141.269 87.683 C 139.119 87.762 136.996 88.2 134.99 88.977 C 130.252 90.885 126.22 95.375 123.929 101.283 C 120.911 109.31 121.28 118.218 124.951 125.968 C 126.87 124.581 136.34 117.719 141.722 113.811 L 141.542 113.452 C 138.247 106.887 137.436 101.475 139.139 97.35 C 139.877 96.003 140.834 94.787 141.969 93.752 C 143.449 92.235 144.843 90.798 144.651 89.373 C 144.517 88.828 144.143 88.373 143.635 88.135 C 142.891 87.801 142.078 87.646 141.263 87.683 L 141.269 87.683 Z " fill="rgb(123,124,124)"/><clipPath id="_clipPath_CciyDFiPoA80e5Ooy43AOuck0NjPCuD7"><path d=" M 138.334 112.17 C 132.958 96.687 141.232 91.213 141.232 91.213 C 129.701 95.139 134.952 113.409 134.952 113.409 L 138.334 112.17 Z " fill="rgb(255,255,255)"/></clipPath><g clip-path="url(#_clipPath_CciyDFiPoA80e5Ooy43AOuck0NjPCuD7)"><g><rect x="131.069" y="88.531" width="12.857" height="27.565" transform="matrix(1,0,0,1,0,0)" fill="rgb(255,255,255)"/></g></g><clipPath id="_clipPath_vaHrJvpLS6uV9fyAuujdoGiTniQZzN6z"><path d=" M 195.614 108.572 C 195.831 105.296 192.982 100.998 194.536 98.793 C 196.952 96 202.432 101.32 203.826 102.986 C 211.512 112.121 208.929 130.818 194.796 141.08 L 185.395 121.788 C 185.352 121.578 194.809 116.258 195.614 108.572 Z " fill="rgb(255,255,255)"/></clipPath><g clip-path="url(#_clipPath_vaHrJvpLS6uV9fyAuujdoGiTniQZzN6z)"><g><rect x="182.72" y="95.313" width="28.049" height="48.455" transform="matrix(1,0,0,1,0,0)" fill="rgb(205,207,208)"/></g></g><path d=" M 194.672 141.625 L 185.055 121.875 C 184.986 121.602 185.098 121.522 185.816 121.014 C 187.984 119.484 194.586 114.821 195.255 108.541 C 195.23 107.063 194.964 105.599 194.468 104.206 C 193.849 102.038 193.229 99.988 194.245 98.57 C 194.758 97.942 195.535 97.592 196.345 97.623 C 199.2 97.623 203.008 101.419 204.111 102.738 C 207.523 106.801 209.028 112.845 208.235 119.336 C 207.065 128.188 202.28 136.161 195.019 141.358 L 194.672 141.625 Z  M 185.854 121.881 L 194.945 140.528 C 201.853 135.444 206.392 127.765 207.517 119.261 C 208.285 112.969 206.842 107.123 203.553 103.215 C 202.228 101.636 198.723 98.372 196.332 98.353 C 195.75 98.337 195.191 98.582 194.809 99.022 C 194.028 100.125 194.58 102.014 195.156 104.008 C 195.68 105.482 195.954 107.033 195.967 108.597 L 195.967 108.597 C 195.273 115.223 188.461 120.023 186.225 121.602 L 185.854 121.881 Z " fill="rgb(123,124,124)"/><clipPath id="_clipPath_AcnbdwpwU185VREdaffl1lX0KSFuF47O"><path d=" M 189.65 122.005 C 201.739 110.857 196.958 102.187 196.958 102.187 C 205.287 111.105 192.071 124.699 192.071 124.699 L 189.65 122.005 Z " fill="rgb(255,255,255)"/></clipPath><g clip-path="url(#_clipPath_AcnbdwpwU185VREdaffl1lX0KSFuF47O)"><g><rect x="186.962" y="99.493" width="15.433" height="27.888" transform="matrix(1,0,0,1,0,0)" fill="rgb(255,255,255)"/></g></g><clipPath id="_clipPath_oFEebhg4PdULB1DofT89VsFgcZshkjwY"><path d=" M 118.132 147.421 C 118.132 147.421 114.261 106.857 150.689 110.027 L 180.243 115.669 C 180.243 115.669 204.959 122.333 197.546 158.488 C 197.546 158.488 160.691 179.768 118.188 147.044" fill="rgb(255,255,255)"/></clipPath><g clip-path="url(#_clipPath_oFEebhg4PdULB1DofT89VsFgcZshkjwY)"><g><rect x="115.327" y="107.16" width="86.288" height="60.81" transform="matrix(1,0,0,1,0,0)" fill="rgb(124,78,196)"/></g></g><path d=" M 167.993 165.641 C 154.919 165.641 137.083 162 118.089 147.421 L 117.773 147.421 C 117.52 143.701 117.665 139.964 118.206 136.274 C 119.03 130.564 121.204 122.556 126.877 116.84 C 132.55 111.124 140.545 108.714 150.726 109.6 L 180.311 115.322 C 180.596 115.397 186.683 117.094 191.948 123.293 C 200.723 133.629 199.999 148.183 197.899 158.594 L 197.868 158.755 L 197.726 158.835 C 197.633 158.891 188.275 164.211 173.833 165.431 C 172.018 165.549 170.061 165.641 167.993 165.641 Z  M 118.448 146.79 C 140.291 163.591 160.561 165.79 173.771 164.675 C 187.092 163.548 196.01 158.91 197.218 158.253 C 199.286 148.047 199.937 133.846 191.421 123.782 C 188.45 120.203 184.547 117.515 180.143 116.016 L 150.627 110.368 C 140.718 109.507 132.878 111.873 127.391 117.403 C 117.847 127.034 118.262 143.464 118.454 146.79 L 118.448 146.79 Z " fill="rgb(94,56,131)"/><clipPath id="_clipPath_ht2GzKeh0nVvc75MI5VJGHw3MTF1lB37"><path d=" M 129.794 144.944 C 129.794 144.944 129.849 124.315 140.941 126.142 C 155.935 128.557 147.283 153.113 147.283 153.113 L 129.794 144.944 Z " fill="rgb(255,255,255)"/></clipPath><g clip-path="url(#_clipPath_ht2GzKeh0nVvc75MI5VJGHw3MTF1lB37)"><g><rect x="127.106" y="123.343" width="25.373" height="32.458" transform="matrix(1,0,0,1,0,0)" fill="rgb(255,255,255)"/></g></g><clipPath id="_clipPath_jHs7u3FuY2sZI5KPsnZK5nPjrMFMxeMt"><path d=" M 140.755 151.986 C 136.563 152.041 133.125 147.205 133.02 141.135 C 132.915 135.066 136.247 130.118 140.452 129.988 C 144.657 129.858 148.082 134.769 148.187 140.838 C 148.292 146.907 144.892 151.862 140.755 151.986 Z " fill="rgb(255,255,255)"/></clipPath><g clip-path="url(#_clipPath_jHs7u3FuY2sZI5KPsnZK5nPjrMFMxeMt)"><g><rect x="130.326" y="127.325" width="20.53" height="27.349" transform="matrix(1,0,0,1,0,0)" fill="rgb(35,31,32)"/></g></g><clipPath id="_clipPath_wIdPIBzmPgO1dlGweXLkkgzr5fAnj0EV"><path d=" M 143.171 137.618 C 143.171 138.552 142.608 139.394 141.745 139.752 C 140.881 140.109 139.888 139.912 139.227 139.251 C 138.567 138.59 138.369 137.597 138.726 136.734 C 139.084 135.87 139.926 135.308 140.861 135.308 C 142.132 135.318 143.161 136.346 143.171 137.618" fill="rgb(255,255,255)"/></clipPath><g clip-path="url(#_clipPath_wIdPIBzmPgO1dlGweXLkkgzr5fAnj0EV)"><g><rect x="135.863" y="132.645" width="9.996" height="9.996" transform="matrix(1,0,0,1,0,0)" fill="rgb(255,255,255)"/></g></g><clipPath id="_clipPath_IDphwVA55fNCI1JfWOMDX4vsNS4weSLd"><path d=" M 186.368 153.385 C 186.368 153.385 193.57 135.871 182.608 133.239 C 166.649 129.48 166.005 156.717 166.005 156.717 L 186.368 153.385 Z " fill="rgb(255,255,255)"/></clipPath><g clip-path="url(#_clipPath_IDphwVA55fNCI1JfWOMDX4vsNS4weSLd)"><g><rect x="163.323" y="130.192" width="28.055" height="29.207" transform="matrix(1,0,0,1,0,0)" fill="rgb(255,255,255)"/></g></g><clipPath id="_clipPath_wryxgvy2900IskoeHtEiNjNUqnv60Vyw"><path d=" M 173.585 157.361 C 177.456 158.922 182.398 155.59 184.652 149.93 C 186.906 144.269 185.562 138.485 181.642 136.924 C 177.722 135.363 172.829 138.695 170.575 144.356 C 168.321 150.016 169.714 155.801 173.585 157.361 Z " fill="rgb(255,255,255)"/></clipPath><g clip-path="url(#_clipPath_wryxgvy2900IskoeHtEiNjNUqnv60Vyw)"><g><rect x="166.828" y="133.871" width="21.602" height="26.556" transform="matrix(1,0,0,1,0,0)" fill="rgb(35,31,32)"/></g></g><clipPath id="_clipPath_CEq5w1xMfpNQm5CGC0U2Gu8HVaaIJKdm"><path d=" M 180.998 143.445 C 181.029 144.721 180.02 145.779 178.744 145.81 C 177.469 145.84 176.41 144.832 176.379 143.556 C 176.349 142.281 177.357 141.222 178.632 141.191 C 179.246 141.173 179.841 141.401 180.286 141.824 C 180.73 142.248 180.987 142.832 180.998 143.445 Z " fill="rgb(255,255,255)"/></clipPath><g clip-path="url(#_clipPath_CEq5w1xMfpNQm5CGC0U2Gu8HVaaIJKdm)"><g><rect x="173.69" y="138.497" width="9.996" height="9.996" transform="matrix(1,0,0,1,0,0)" fill="rgb(255,255,255)"/></g></g><clipPath id="_clipPath_9QyH0dWDRJimzM4UFcMfWxMuD7ixfQM2"><path d=" M 146.775 208.076 C 213.239 216.617 212.917 160.687 193.521 153.757 C 182.453 149.781 171.975 158.916 156.071 155.745 C 140.489 152.648 134.63 141.402 120.343 144.083 C 96.914 148.548 96.914 201.629 146.775 208.076 Z " fill="rgb(255,255,255)"/></clipPath><g clip-path="url(#_clipPath_9QyH0dWDRJimzM4UFcMfWxMuD7ixfQM2)"><g><rect x="102.47" y="140.987" width="105.041" height="70.663" transform="matrix(1,0,0,1,0,0)" fill="rgb(245,234,215)"/></g></g><path d=" M 159.954 209.334 C 155.53 209.316 151.111 209.016 146.726 208.436 L 146.726 208.436 C 133.448 206.72 122.492 201.462 115.023 193.232 C 108.763 186.401 105.143 177.563 104.811 168.304 C 104.433 155.64 110.793 145.532 120.293 143.724 C 128.691 142.145 134.11 145.235 140.384 148.802 C 144.936 151.397 149.673 154.079 156.164 155.379 C 164.134 156.965 170.841 155.379 176.762 154.036 C 182.683 152.692 188.095 151.403 193.663 153.416 C 202.55 156.593 207.331 169.37 204.328 181.904 C 202.209 190.73 196.438 198.199 188.077 202.961 C 180.534 207.197 171.114 209.334 159.954 209.334 Z  M 146.818 207.717 C 192.319 213.564 201.776 189.305 203.597 181.706 C 206.47 169.729 201.801 157.076 193.397 154.073 C 188.027 152.147 182.868 153.342 176.898 154.729 C 170.928 156.116 164.116 157.696 155.997 156.079 C 149.37 154.754 144.391 151.917 140 149.422 C 133.85 145.916 128.536 142.894 120.405 144.424 C 111.282 146.158 105.17 155.962 105.541 168.267 C 105.865 177.356 109.418 186.031 115.562 192.736 C 122.907 200.837 133.714 206.014 146.818 207.711 L 146.818 207.717 Z " fill="rgb(147,140,129)"/><clipPath id="_clipPath_D5Fa7qr6yNZ5exrWTwb8YWXCG4suk7VZ"><path d=" M 178.471 171.116 C 175.245 172.677 172.185 171.977 171.659 169.555 C 171.133 167.134 173.269 163.982 176.496 162.409 C 179.722 160.836 182.782 161.548 183.308 163.969 C 183.835 166.391 181.698 169.543 178.471 171.116 Z " fill="rgb(255,255,255)"/></clipPath><g clip-path="url(#_clipPath_D5Fa7qr6yNZ5exrWTwb8YWXCG4suk7VZ)"><g><rect x="168.878" y="158.891" width="17.198" height="15.737" transform="matrix(1,0,0,1,0,0)" fill="rgb(124,78,196)"/></g></g><clipPath id="_clipPath_zoNv22g1mDqBFVklRYP9Ju7H89zE9rup"><path d=" M 186.584 162.031 C 186.584 162.031 188.572 167.245 176.911 171.649 C 175.055 171.025 173.402 169.91 172.13 168.422 C 171.436 163.858 182.392 155.962 186.584 162.031 Z " fill="rgb(255,255,255)"/></clipPath><g clip-path="url(#_clipPath_zoNv22g1mDqBFVklRYP9Ju7H89zE9rup)"><g><g style="opacity:0.4;"><g opacity="0.4"><rect x="169.417" y="157.138" width="19.985" height="17.198" transform="matrix(1,0,0,1,0,0)" fill="rgb(124,78,196)"/></g></g></g></g><clipPath id="_clipPath_hvHFFdqeE5pfSoYueEVl3faEzyGFvTJN"><path d=" M 140.539 159.777 C 142.26 162.873 141.777 166.007 139.411 166.707 C 137.046 167.406 133.714 165.468 131.98 162.371 C 130.246 159.275 130.741 156.141 133.107 155.441 C 135.473 154.742 138.749 156.68 140.539 159.777 Z " fill="rgb(255,255,255)"/></clipPath><g clip-path="url(#_clipPath_hvHFFdqeE5pfSoYueEVl3faEzyGFvTJN)"><g><rect x="128.282" y="152.593" width="15.966" height="16.938" transform="matrix(1,0,0,1,0,0)" fill="rgb(124,78,196)"/></g></g><clipPath id="_clipPath_xa8niq8oLc4ChtXNWCSntlr4cont2rBS"><path d=" M 132.859 163.808 C 129.961 160.798 126.517 156.996 128.883 153.899 C 128.883 153.899 135.386 148.152 141.35 162.44" fill="rgb(255,255,255)"/></clipPath><g clip-path="url(#_clipPath_xa8niq8oLc4ChtXNWCSntlr4cont2rBS)"><g><g style="opacity:0.4;"><g opacity="0.4"><rect x="125.409" y="150.091" width="18.623" height="16.399" transform="matrix(1,0,0,1,0,0)" fill="rgb(124,78,196)"/></g></g></g></g><clipPath id="_clipPath_JO7l1ARe68mIHiukwx626YAomcuALUEq"><path d=" M 192.065 184.543 C 187.823 188.785 182.231 190.117 179.598 187.497 C 176.966 184.877 178.31 179.279 182.553 175.03 C 186.795 170.782 192.387 169.456 195.019 172.076 C 197.651 174.696 196.363 180.294 192.065 184.543 Z " fill="rgb(255,255,255)"/></clipPath><g clip-path="url(#_clipPath_JO7l1ARe68mIHiukwx626YAomcuALUEq)"><g><g style="opacity:0.4;"><g opacity="0.4"><rect x="175.567" y="168.044" width="23.503" height="23.49" transform="matrix(1,0,0,1,0,0)" fill="rgb(124,78,196)"/></g></g></g></g><clipPath id="_clipPath_D62sp75NmLu6AR0JEomi5Je9zVjnTkdX"><path d=" M 161.496 116.79 C 161.496 116.79 151.661 117.973 150.968 125.386 C 150.968 125.386 146.453 117.434 155.105 115.285 C 155.105 115.285 148.714 112.275 143.499 115.446 C 143.499 115.446 146.887 108.999 155.644 110.665 C 154.566 106.367 149.036 104.596 149.036 104.596 C 149.036 104.596 155.322 103.091 161.019 109.055 C 161.213 107.441 162.07 105.98 163.385 105.023 C 164.713 106.221 165.49 107.912 165.534 109.699 C 165.534 109.699 172.625 105.562 178.589 111.557 C 178.589 111.557 171.82 109.625 169.776 112.096 C 169.776 112.096 179.933 112.796 181.809 120.314 C 181.809 120.314 172.78 113.972 168.538 115.911 C 175.251 118.388 173.535 125.312 173.535 125.312 C 173.535 125.312 170.736 117.868 161.496 116.79 Z " fill="rgb(255,255,255)"/></clipPath><g clip-path="url(#_clipPath_D62sp75NmLu6AR0JEomi5Je9zVjnTkdX)"><g><rect x="140.811" y="101.741" width="43.68" height="26.333" transform="matrix(1,0,0,1,0,0)" fill="rgb(124,78,196)"/></g></g><path d=" M 151.216 126.569 L 150.646 125.566 C 150.559 125.411 148.534 121.782 149.878 118.642 C 150.547 117.088 151.922 115.942 153.971 115.236 C 152.021 114.567 147.487 113.44 143.679 115.756 L 142.564 116.437 L 143.183 115.279 C 143.915 114.038 144.903 112.968 146.081 112.139 C 147.834 110.901 150.801 109.544 155.13 110.207 C 153.804 106.541 148.98 104.955 148.936 104.937 L 147.698 104.54 L 148.936 104.237 C 149.197 104.175 155.13 102.837 160.759 108.293 C 161.122 106.87 161.964 105.615 163.143 104.738 L 163.373 104.565 L 163.596 104.751 C 164.866 105.88 165.673 107.44 165.862 109.129 C 167.646 108.306 173.684 106.126 178.868 111.328 L 179.846 112.313 L 178.515 111.935 C 178.453 111.935 173.015 110.393 170.656 111.861 C 173.133 112.232 180.565 113.855 182.187 120.258 L 182.423 121.2 L 181.624 120.642 C 181.543 120.587 173.913 115.279 169.628 115.998 C 175.468 118.828 173.932 125.362 173.913 125.43 L 173.635 126.563 L 173.226 125.473 C 171.078 120.811 166.607 117.65 161.496 117.18 C 159.811 117.44 158.171 117.94 156.628 118.667 C 153.383 120.227 151.599 122.513 151.321 125.442 L 151.216 126.569 Z  M 149.017 113.626 C 151.166 113.649 153.289 114.104 155.26 114.963 L 156.182 115.397 L 155.191 115.645 C 152.795 116.264 151.234 117.348 150.553 118.933 C 149.754 120.791 150.324 122.921 150.807 124.166 C 152.392 117.608 161.335 116.45 161.459 116.437 L 161.546 116.437 C 166.505 116.916 170.916 119.791 173.356 124.135 C 173.517 122.141 173.22 118.041 168.401 116.276 L 167.578 115.942 L 168.383 115.576 C 172.024 113.917 178.756 117.893 181.153 119.441 C 178.769 113.149 169.838 112.461 169.745 112.455 L 169.039 112.406 L 169.491 111.861 C 171.083 109.934 175.127 110.436 177.288 110.876 C 171.826 106.541 165.775 109.953 165.707 109.99 L 165.162 110.306 L 165.162 109.687 C 165.125 108.109 164.479 106.607 163.36 105.494 C 162.263 106.382 161.553 107.661 161.378 109.061 L 161.341 109.91 L 160.753 109.29 C 156.851 105.203 152.621 104.732 150.503 104.788 C 152.268 105.624 155.216 107.445 155.997 110.566 L 156.133 111.117 L 155.575 111.012 C 149.506 109.86 146.094 112.734 144.651 114.449 C 146.037 113.888 147.521 113.608 149.017 113.626 L 149.017 113.626 Z " fill="rgb(94,56,131)"/><clipPath id="_clipPath_DlJaHp4DK8qiAlSDDvX6xc7b4k1pRSfg"><path d=" M 176.539 191.529 L 176.434 191.529 C 174.69 191.082 173.269 189.82 172.619 188.141 C 172.543 187.957 172.553 187.748 172.646 187.572 C 172.74 187.396 172.907 187.271 173.102 187.231 C 173.499 187.134 173.907 187.338 174.068 187.714 C 174.533 188.898 175.529 189.793 176.756 190.129 C 177.147 190.223 177.411 190.589 177.375 190.99 C 177.247 191.335 176.906 191.554 176.539 191.529 Z  M 131.46 183.199 L 132.748 182.394 C 136.228 189.233 142.825 193.946 150.423 195.021 C 164.233 196.954 174.223 189.057 174.223 189.057 L 175.189 190.135 C 175.189 190.135 164.766 198.892 150.311 196.582 C 135.857 194.272 131.46 183.205 131.46 183.205 L 131.46 183.199 Z " fill="rgb(255,255,255)"/></clipPath><g clip-path="url(#_clipPath_DlJaHp4DK8qiAlSDDvX6xc7b4k1pRSfg)"><g><rect x="128.772" y="179.712" width="51.266" height="19.948" transform="matrix(1,0,0,1,0,0)" fill="rgb(35,31,32)"/></g></g><clipPath id="_clipPath_ggqwHMdushYL78Twihf5l3k3LWiLg373"><path d=" M 116.578 174.498 C 120.07 179.384 125.867 181.483 128.883 179.334 C 131.899 177.185 131.893 170.633 128.4 165.74 C 124.907 160.848 119.21 159.399 116.15 161.603 C 113.091 163.808 113.085 169.611 116.578 174.498 Z " fill="rgb(255,255,255)"/></clipPath><g clip-path="url(#_clipPath_ggqwHMdushYL78Twihf5l3k3LWiLg373)"><g><g style="opacity:0.4;"><g opacity="0.4"><rect x="111.233" y="157.912" width="22.53" height="24.946" transform="matrix(1,0,0,1,0,0)" fill="rgb(124,78,196)"/></g></g></g></g><clipPath id="_clipPath_Ln4AoXjcpKspdwdMw3IlItFY1DRZ7bV4"><path d=" M 129.899 184.221 L 130.004 184.221 C 131.777 184.189 133.412 183.255 134.339 181.743 C 134.53 181.385 134.414 180.941 134.073 180.722 C 133.904 180.613 133.698 180.58 133.504 180.631 C 133.31 180.682 133.146 180.811 133.051 180.988 C 132.389 182.062 131.216 182.714 129.955 182.71 C 129.756 182.697 129.563 182.773 129.427 182.919 C 129.292 183.064 129.228 183.262 129.255 183.459 C 129.232 183.833 129.503 184.16 129.874 184.208" fill="rgb(255,255,255)"/></clipPath><g clip-path="url(#_clipPath_Ln4AoXjcpKspdwdMw3IlItFY1DRZ7bV4)"><g><rect x="126.567" y="177.935" width="10.584" height="8.974" transform="matrix(1,0,0,1,0,0)" fill="rgb(35,31,32)"/></g></g></g><path d="M 57.5 354 L 262.5 354 C 274.918 354 285 364.082 285 376.5 L 285 376.5 C 285 388.918 274.918 399 262.5 399 L 57.5 399 C 45.082 399 35 388.918 35 376.5 L 35 376.5 C 35 364.082 45.082 354 57.5 354 Z" style="stroke:none;fill:#FFFFFF;stroke-miterlimit:10;"/><text transform="matrix(1,0,0,1,45.915,383.198)" style="font-family:'Nunito';font-weight:400;font-size:18px;font-style:normal;fill:#aeecef;stroke:none;">Password</text></g></svg>