<?xml version="1.0" standalone="no"?><!-- Generator: Gravit.io --><svg xmlns="http://www.w3.org/2000/svg" xmlns:xlink="http://www.w3.org/1999/xlink" style="isolation:isolate" viewBox="0 0 320 568" width="320px" height="568px"><defs><clipPath id="_clipPath_Dlt546oq0OjH1WsJpaQLNpMfvvPTfrym"><rect width="320" height="568"/></clipPath></defs><g clip-path="url(#_clipPath_Dlt546oq0OjH1WsJpaQLNpMfvvPTfrym)"><rect width="320" height="568" style="fill:rgb(174,236,239)"/><path d="M 82.5 461 L 237.5 461 C 249.918 461 260 471.082 260 483.5 L 260 483.5 C 260 495.918 249.918 506 237.5 506 L 82.5 506 C 70.082 506 60 495.918 60 483.5 L 60 483.5 C 60 471.082 70.082 461 82.5 461 Z" style="stroke:none;fill:#7C4EC4;stroke-miterlimit:10;"/><text transform="matrix(1,0,0,1,135.861,490.198)" style="font-family:'Nunito';font-weight:700;font-size:18px;font-style:normal;fill:#ffffff;stroke:none;">Login</text><text transform="matrix(1,0,0,1,35,278.198)" style="font-family:'Nunito';font-weight:700;font-size:18px;font-style:normal;fill:#6d9dc5;stroke:none;">Username or email</text><text transform="matrix(1,0,0,1,35,363.198)" style="font-family:'Nunito';font-weight:700;font-size:18px;font-style:normal;fill:#6d9dc5;stroke:none;">Password</text><path d="M 57.5 288 L 262.5 288 C 274.918 288 285 298.082 285 310.5 L 285 310.5 C 285 322.918 274.918 333 262.5 333 L 57.5 333 C 45.082 333 35 322.918 35 310.5 L 35 310.5 C 35 298.082 45.082 288 57.5 288 Z" style="stroke:none;fill:#FFFFFF;stroke-miterlimit:10;"/><text transform="matrix(1,0,0,1,52.957,317.198)" style="font-family:'Nunito';font-weight:400;font-size:18px;font-style:normal;fill:#aeecef;stroke:none;">Username or email</text><g><clipPath id="_clipPath_G3EsKdXVwpVpK1rCAHzvLPh7vOtXKr1o"><path d=" M 196.604 185.058 C 199.627 185.058 201.325 186.727 201.325 186.727 L 201.778 184.381 C 201.778 184.465 206.339 184.55 208.053 185.625 C 208.336 185.824 207.854 195.575 207.854 195.575 L 201.439 196.367 C 201.439 196.367 200.647 192.268 197.057 192.268 C 194.995 192.268 193.212 194.474 193.212 198.882 C 193.212 203.603 196.04 205.213 198.047 205.213 C 200.592 205.213 202.514 203.066 202.908 202.499 C 204.716 204.366 208.121 207.444 208.121 207.444 C 208.121 207.444 205.606 213.351 198.021 213.351 C 191.802 213.351 185.018 208.516 185.018 198.879 C 184.986 188.76 191.007 185.058 196.604 185.058 Z  M 219.583 206.796 C 221.137 206.796 222.326 205.61 222.326 203.036 C 222.326 201 221.534 198.938 219.583 198.938 C 217.152 198.938 216.361 200.945 216.361 203.036 C 216.361 205.437 218.113 206.793 219.583 206.793 L 219.583 206.796 Z  M 219.443 192.353 C 225.095 192.353 229.217 196.142 229.217 202.841 C 229.217 208.353 226.285 213.609 219.495 213.609 C 213.419 213.609 209.121 210.442 209.121 202.756 C 209.099 195.119 213.761 192.35 219.443 192.35 L 219.443 192.353 Z  M 232.332 198.061 L 229.816 197.947 C 229.816 197.947 229.139 193.904 229.422 192.633 L 241.35 192.747 C 241.35 192.747 241.633 197.309 241.549 197.96 L 239.428 198.045 L 241.549 202.906 L 246.325 194.455 L 249.941 194.569 L 255.255 202.991 L 257.177 198.156 L 254.916 198.042 L 254.946 192.728 C 255.144 192.529 266.788 192.643 266.759 192.643 C 266.948 194.408 267.043 196.182 267.043 197.957 L 264.641 198.126 C 264.641 198.126 260.683 209.451 258.239 213.068 C 258.239 213.068 255.017 213.351 253.32 212.954 L 247.892 204.248 L 243.057 213.068 C 243.057 213.068 239.441 213.351 237.743 212.954 C 237.785 212.954 232.924 201.339 232.332 198.058 L 232.332 198.061 Z " fill="rgb(255,255,255)"/></clipPath><g clip-path="url(#_clipPath_G3EsKdXVwpVpK1rCAHzvLPh7vOtXKr1o)"><g><rect x="183.63" y="182.967" width="84.826" height="32.053" transform="matrix(1,0,0,1,0,0)" fill="rgb(124,78,196)"/></g></g><clipPath id="_clipPath_3bO5IcrSuMFFTgImNjaZe0UWH3nR6YCw"><path d=" M 53.156 207.679 C 53.326 207.51 56.04 207.285 56.04 207.285 L 55.473 190.806 C 55.473 190.806 53.156 190.89 52.957 190.692 C 52.957 190.692 53.127 184.869 53.127 184.869 L 64.66 185.068 L 64.944 190.721 L 62.145 191.004 L 62.344 195.386 L 70.033 195.755 L 69.948 190.835 L 67.602 190.61 C 67.573 190.61 67.208 185.156 67.208 185.156 L 80.322 185.27 C 80.322 185.27 80.208 190.724 80.123 190.724 C 80.123 190.724 77.191 191.203 77.191 191.203 L 77.699 206.975 L 80.442 207.301 L 80.442 213.009 C 80.442 213.009 68.062 213.178 68.062 213.094 C 68.062 213.094 67.948 207.272 67.948 207.272 L 70.746 206.988 L 70.632 201.73 L 62.52 201.505 C 62.52 201.505 62.435 207.327 62.634 207.327 C 62.634 207.327 65.318 207.158 65.318 207.441 C 65.318 207.441 65.885 212.7 65.687 212.784 C 65.687 212.784 53.251 212.586 53.251 212.586 C 53.251 212.586 53.016 207.839 53.156 207.679 Z  M 94.686 202.723 C 94.686 200.602 93.357 198.85 91.754 198.85 C 89.747 198.85 88.447 200.234 88.447 202.639 C 88.447 204.955 90.001 206.428 91.614 206.428 C 93.35 206.454 94.686 204.955 94.686 202.723 Z  M 81.328 202.525 C 81.328 194.95 86.189 192.718 90.262 192.718 C 92.39 192.767 94.452 193.467 96.169 194.725 L 96.169 192.718 C 96.169 192.718 104.62 192.435 104.62 192.633 C 104.62 192.633 104.903 197.947 104.845 197.947 C 104.845 197.947 101.961 198.54 101.913 198.625 C 101.799 198.71 101.997 207.047 101.997 207.047 C 101.997 207.047 105.304 207.018 105.36 207.272 C 105.415 207.526 105.444 212.869 105.275 212.869 C 105.161 212.869 96.231 212.7 96.231 212.586 C 96.231 212.472 95.836 210.549 95.836 210.549 C 95.836 210.549 94.253 213.178 90.184 213.178 C 86.483 213.182 81.328 210.751 81.328 202.525 Z  M 146.199 207.161 C 148.121 207.161 148.998 205.636 148.998 202.978 C 148.998 200.319 147.922 198.934 146.368 198.934 C 144.645 198.934 143.57 200.404 143.57 202.919 C 143.557 205.323 144.622 207.161 146.206 207.161 L 146.199 207.161 Z  M 135.203 216.283 L 135.174 199.635 L 132.242 199.635 C 132.212 197.09 131.958 193.728 131.958 193.728 C 131.958 193.728 140.778 192.288 140.976 192.483 C 141.061 192.708 141.823 194.236 141.823 194.236 C 141.823 194.236 142.983 192.483 147.036 192.483 C 150.711 192.483 156.159 194.885 156.159 203.111 C 156.159 211.422 151.324 213.315 147.255 213.315 C 143.863 213.315 142.618 212.045 142.618 212.045 L 142.618 216.003 C 142.618 216.003 146.492 216.456 146.662 216.57 C 146.886 216.769 146.776 221.969 146.831 221.969 C 146.886 221.969 132.359 222.053 132.414 221.969 L 132.189 216.541 L 135.203 216.283 Z  M 120.816 207.161 C 122.738 207.161 123.614 205.636 123.614 202.978 C 123.614 200.319 122.539 198.934 120.985 198.934 C 119.262 198.934 118.186 200.404 118.186 202.919 C 118.167 205.323 119.268 207.161 120.825 207.161 L 120.816 207.161 Z  M 109.82 216.283 L 109.79 199.635 L 106.858 199.635 C 106.829 197.09 106.575 193.728 106.575 193.728 C 106.575 193.728 115.394 192.288 115.593 192.483 C 115.678 192.708 116.44 194.236 116.44 194.236 C 116.44 194.236 117.6 192.483 121.653 192.483 C 125.328 192.483 130.775 194.885 130.775 203.111 C 130.775 211.422 125.941 213.315 121.871 213.315 C 118.48 213.315 117.235 212.045 117.235 212.045 L 117.235 216.003 C 117.235 216.003 121.109 216.456 121.278 216.57 C 121.503 216.769 121.392 221.969 121.448 221.969 C 121.503 221.969 106.976 222.053 107.031 221.969 L 106.806 216.541 L 109.82 216.283 Z  M 165.06 210.383 C 165.06 210.383 159.462 201.195 158.869 197.947 L 156.664 197.833 C 156.664 197.833 155.986 193.924 156.27 192.62 L 168.197 192.591 C 168.197 192.591 168.481 197.169 168.396 197.849 L 166.164 197.934 L 169.188 203.558 L 172.1 198.045 L 170.093 197.931 L 170.009 192.718 C 170.207 192.519 181.513 192.887 181.457 192.887 C 181.651 194.586 181.745 196.294 181.741 198.003 L 179.535 198.117 C 179.535 198.117 168.709 219.427 166.278 223.047 C 166.278 223.047 160.681 221.917 159.381 219.655 C 159.153 219.655 165.229 210.438 165.06 210.383 Z " fill="rgb(255,255,255)"/></clipPath><g clip-path="url(#_clipPath_3bO5IcrSuMFFTgImNjaZe0UWH3nR6YCw)"><g><rect x="51.488" y="183.446" width="131.664" height="41.041" transform="matrix(1,0,0,1,0,0)" fill="rgb(1,1,1)"/></g></g></g><g><clipPath id="_clipPath_aRjqJQZkVeCMrccjYzwcgye01CYlnAeb"><path d=" M 123.83 98.085 C 123.291 99.695 114.156 100.29 113.029 100.395 C 107.548 100.878 98.785 101.739 94.549 97.299 C 90.628 93.217 92.183 86.151 96.109 82.633 C 100.191 78.917 105.566 79.085 110.403 80.001 C 113.198 80.557 115.946 81.329 118.621 82.311 C 119.482 82.633 127.973 86.027 127.7 86.876 C 127.645 86.876 123.83 98.104 123.83 98.104" fill="rgb(255,255,255)"/></clipPath><g clip-path="url(#_clipPath_aRjqJQZkVeCMrccjYzwcgye01CYlnAeb)"><g><rect x="89.588" y="76.744" width="40.806" height="26.742" transform="matrix(1,0,0,1,0,0)" fill="rgb(124,78,196)"/></g></g><path d=" M 106.062 101.169 C 101.646 101.169 97.069 100.463 94.295 97.534 C 92.624 95.752 91.765 93.358 91.923 90.92 C 92.068 87.655 93.484 84.577 95.868 82.342 C 100.345 78.28 106.347 78.843 110.471 79.623 C 113.286 80.182 116.052 80.961 118.745 81.952 C 119.216 82.132 121.557 83.061 123.737 84.045 C 127.973 85.959 128.196 86.523 128.072 86.968 L 127.973 87.222 C 127.546 88.399 125.545 94.239 124.201 98.203 C 123.935 98.989 122.486 99.993 113.568 100.717 L 113.091 100.754 L 112.806 100.754 C 110.793 100.959 108.452 101.169 106.062 101.169 Z  M 105.232 79.803 C 102.21 79.803 98.983 80.497 96.345 82.9 C 94.104 84.996 92.77 87.885 92.629 90.951 C 92.489 93.189 93.273 95.387 94.796 97.032 C 98.847 101.293 107.183 100.55 112.701 100.061 L 112.986 100.061 L 113.469 100.017 C 122.368 99.293 123.378 98.283 123.47 97.992 L 123.47 97.992 C 123.47 97.992 124.424 95.187 125.384 92.375 C 126.623 88.839 127.075 87.421 127.329 86.882 C 126.901 86.151 120.993 83.593 118.473 82.652 C 115.816 81.676 113.087 80.91 110.31 80.36 C 108.638 80.016 106.938 79.827 105.232 79.797 L 105.232 79.803 Z  M 127.347 86.758 C 127.338 86.792 127.338 86.829 127.347 86.863 L 127.391 86.77 L 127.347 86.758 Z " fill="rgb(94,56,131)"/><clipPath id="_clipPath_f0P99xdmjxVlVTlPPPCJCmpv37OSBAbQ"><path d=" M 111.121 95.831 C 107.951 96.153 102.903 96.741 100.482 94.165 C 98.277 91.799 99.194 87.613 101.448 85.464 C 103.863 83.209 106.229 83.42 108.972 83.903 C 110.583 84.169 113.927 85.086 115.314 86.696 C 116.701 88.306 120.876 94.326 111.121 95.831 Z " fill="rgb(255,255,255)"/></clipPath><g clip-path="url(#_clipPath_f0P99xdmjxVlVTlPPPCJCmpv37OSBAbQ)"><g><rect x="96.561" y="80.899" width="23.559" height="17.91" transform="matrix(1,0,0,1,0,0)" fill="rgb(245,234,215)"/></g></g><clipPath id="_clipPath_feru92vsL7xNGdOaymyUmWto7N4jP9Rz"><path d=" M 195.131 109.716 C 195.187 111.221 203.671 114.336 204.749 114.769 C 209.852 116.757 217.965 119.928 223.285 117.401 C 228.239 115.036 228.821 108.589 226.183 104.452 C 223.39 100.116 218.175 98.754 213.345 98.11 C 210.529 97.761 207.688 97.653 204.854 97.788 C 203.944 97.844 194.858 98.271 194.858 99.076 L 195.125 109.716" fill="rgb(255,255,255)"/></clipPath><g clip-path="url(#_clipPath_feru92vsL7xNGdOaymyUmWto7N4jP9Rz)"><g><rect x="192.17" y="95.032" width="38.242" height="25.968" transform="matrix(1,0,0,1,0,0)" fill="rgb(124,78,196)"/></g></g><path d=" M 218.578 118.683 C 213.859 118.683 208.533 116.609 204.65 115.098 L 204.129 114.899 C 195.93 111.741 194.79 110.502 194.765 109.71 L 194.765 109.71 L 194.499 99.07 C 194.499 98.574 194.499 97.967 204.538 97.429 L 204.835 97.429 C 207.692 97.289 210.556 97.397 213.394 97.751 C 217.94 98.37 223.532 99.646 226.493 104.253 C 228.046 106.737 228.495 109.755 227.731 112.583 C 227.132 114.842 225.569 116.722 223.458 117.723 C 221.923 118.403 220.256 118.731 218.578 118.683 Z  M 195.49 109.685 C 195.49 109.951 196.184 111.06 204.389 114.218 L 204.879 114.41 C 209.79 116.324 217.959 119.507 223.124 117.055 C 225.044 116.137 226.466 114.423 227.013 112.366 C 227.724 109.74 227.311 106.935 225.873 104.625 C 223.074 100.29 217.68 99.051 213.289 98.432 C 210.494 98.081 207.674 97.974 204.86 98.11 L 204.569 98.11 C 197.106 98.512 195.546 98.958 195.217 99.138 L 195.49 109.685 Z " fill="rgb(94,56,131)"/><clipPath id="_clipPath_8abrsLuEWrbFB07I84RjFnX3e4j0RQ4c"><path d=" M 207.913 111.357 C 210.867 112.54 215.487 114.453 218.553 112.967 C 221.402 111.567 221.724 107.753 220.163 105.281 C 218.553 102.705 216.243 102.185 213.45 101.789 C 211.84 101.572 208.396 101.411 206.576 102.408 C 204.755 103.405 199.063 107.381 207.913 111.357 Z " fill="rgb(255,255,255)"/></clipPath><g clip-path="url(#_clipPath_8abrsLuEWrbFB07I84RjFnX3e4j0RQ4c)"><g><rect x="200.395" y="98.946" width="23.379" height="17.26" transform="matrix(1,0,0,1,0,0)" fill="rgb(245,234,215)"/></g></g><clipPath id="_clipPath_jJG7sZGfOdKSK769ovOxELRCudCsnnVi"><path d=" M 142.149 77.995 C 142.31 77.889 136.507 68.705 139.461 61.552 C 140.805 58.598 145.369 56.127 144.998 53.383 C 144.193 49.835 136.829 51.878 134.841 52.684 C 123.774 57.143 117.215 74.818 124.796 90.56 C 124.74 90.616 142.136 77.988 142.136 77.988" fill="rgb(255,255,255)"/></clipPath><g clip-path="url(#_clipPath_jJG7sZGfOdKSK769ovOxELRCudCsnnVi)"><g><rect x="118.85" y="48.683" width="28.86" height="44.572" transform="matrix(1,0,0,1,0,0)" fill="rgb(205,207,208)"/></g></g><path d=" M 124.746 90.957 C 124.66 90.957 124.61 90.895 124.529 90.802 L 124.48 90.722 C 120.55 82.705 120.102 73.422 123.241 65.064 C 125.607 58.963 129.781 54.331 134.705 52.343 C 135.987 51.823 141.331 50.157 143.957 51.532 C 144.669 51.877 145.183 52.53 145.351 53.303 C 145.598 55.111 144.112 56.672 142.477 58.319 C 141.405 59.294 140.497 60.436 139.789 61.701 C 138.179 65.602 138.978 70.811 142.174 77.183 C 142.533 77.902 142.632 78.1 142.353 78.292 L 125.75 90.325 C 125.118 90.783 124.882 90.957 124.746 90.957 Z  M 141.269 51.73 C 139.119 51.809 136.996 52.247 134.99 53.024 C 130.252 54.932 126.22 59.422 123.929 65.33 C 120.911 73.357 121.28 82.265 124.951 90.015 C 126.87 88.628 136.34 81.766 141.722 77.858 L 141.542 77.499 C 138.247 70.935 137.436 65.522 139.139 61.397 C 139.877 60.05 140.834 58.834 141.969 57.799 C 143.449 56.282 144.843 54.845 144.651 53.42 C 144.517 52.875 144.143 52.42 143.635 52.182 C 142.891 51.848 142.078 51.693 141.263 51.73 L 141.269 51.73 Z " fill="rgb(123,124,124)"/><clipPath id="_clipPath_S3mInQEOol88iJqiCHhC8wT1mRtoGCbG"><path d=" M 138.334 76.217 C 132.958 60.735 141.232 55.26 141.232 55.26 C 129.701 59.186 134.952 77.456 134.952 77.456 L 138.334 76.217 Z " fill="rgb(255,255,255)"/></clipPath><g clip-path="url(#_clipPath_S3mInQEOol88iJqiCHhC8wT1mRtoGCbG)"><g><rect x="131.069" y="52.578" width="12.857" height="27.565" transform="matrix(1,0,0,1,0,0)" fill="rgb(255,255,255)"/></g></g><clipPath id="_clipPath_W7YOID7WvQbo23dKWNm4fTip76KkxR48"><path d=" M 195.614 72.619 C 195.831 69.343 192.982 65.045 194.536 62.84 C 196.952 60.047 202.432 65.367 203.826 67.033 C 211.512 76.168 208.929 94.865 194.796 105.127 L 185.395 85.835 C 185.352 85.625 194.809 80.305 195.614 72.619 Z " fill="rgb(255,255,255)"/></clipPath><g clip-path="url(#_clipPath_W7YOID7WvQbo23dKWNm4fTip76KkxR48)"><g><rect x="182.72" y="59.36" width="28.049" height="48.455" transform="matrix(1,0,0,1,0,0)" fill="rgb(205,207,208)"/></g></g><path d=" M 194.672 105.672 L 185.055 85.922 C 184.986 85.649 185.098 85.569 185.816 85.061 C 187.984 83.531 194.586 78.868 195.255 72.588 C 195.23 71.11 194.964 69.646 194.468 68.253 C 193.849 66.085 193.229 64.035 194.245 62.617 C 194.758 61.99 195.535 61.639 196.345 61.67 C 199.2 61.67 203.008 65.466 204.111 66.785 C 207.523 70.848 209.028 76.892 208.235 83.383 C 207.065 92.235 202.28 100.208 195.019 105.405 L 194.672 105.672 Z  M 185.854 85.928 L 194.945 104.575 C 201.853 99.491 206.392 91.812 207.517 83.308 C 208.285 77.016 206.842 71.17 203.553 67.262 C 202.228 65.683 198.723 62.419 196.332 62.4 C 195.75 62.384 195.191 62.629 194.809 63.069 C 194.028 64.172 194.58 66.061 195.156 68.055 C 195.68 69.529 195.954 71.08 195.967 72.644 L 195.967 72.644 C 195.273 79.27 188.461 84.07 186.225 85.649 L 185.854 85.928 Z " fill="rgb(123,124,124)"/><clipPath id="_clipPath_MF7Yq8czibxosym5bqvWQam8VleCWH14"><path d=" M 189.65 86.052 C 201.739 74.904 196.958 66.234 196.958 66.234 C 205.287 75.152 192.071 88.746 192.071 88.746 L 189.65 86.052 Z " fill="rgb(255,255,255)"/></clipPath><g clip-path="url(#_clipPath_MF7Yq8czibxosym5bqvWQam8VleCWH14)"><g><rect x="186.962" y="63.54" width="15.433" height="27.888" transform="matrix(1,0,0,1,0,0)" fill="rgb(255,255,255)"/></g></g><clipPath id="_clipPath_8TIbLHzKNoIc3OFmXCxDPy0qHajlRJTB"><path d=" M 118.132 111.468 C 118.132 111.468 114.261 70.904 150.689 74.074 L 180.243 79.716 C 180.243 79.716 204.959 86.38 197.546 122.535 C 197.546 122.535 160.691 143.815 118.188 111.091" fill="rgb(255,255,255)"/></clipPath><g clip-path="url(#_clipPath_8TIbLHzKNoIc3OFmXCxDPy0qHajlRJTB)"><g><rect x="115.327" y="71.207" width="86.288" height="60.81" transform="matrix(1,0,0,1,0,0)" fill="rgb(124,78,196)"/></g></g><path d=" M 167.993 129.688 C 154.919 129.688 137.083 126.047 118.089 111.468 L 117.773 111.468 C 117.52 107.748 117.665 104.011 118.206 100.321 C 119.03 94.611 121.204 86.603 126.877 80.887 C 132.55 75.171 140.545 72.762 150.726 73.647 L 180.311 79.37 C 180.596 79.444 186.683 81.141 191.948 87.34 C 200.723 97.676 199.999 112.23 197.899 122.641 L 197.868 122.802 L 197.726 122.882 C 197.633 122.938 188.275 128.258 173.833 129.478 C 172.018 129.596 170.061 129.688 167.993 129.688 Z  M 118.448 110.837 C 140.291 127.639 160.561 129.837 173.771 128.722 C 187.092 127.595 196.01 122.957 197.218 122.3 C 199.286 112.094 199.937 97.893 191.421 87.829 C 188.45 84.25 184.547 81.563 180.143 80.063 L 150.627 74.415 C 140.718 73.554 132.878 75.92 127.391 81.45 C 117.847 91.081 118.262 107.511 118.454 110.837 L 118.448 110.837 Z " fill="rgb(94,56,131)"/><clipPath id="_clipPath_wvhxGNTfHocaChQ5NMd15LZfwATeIPDt"><path d=" M 129.794 108.991 C 129.794 108.991 129.849 88.362 140.941 90.189 C 155.935 92.604 147.283 117.16 147.283 117.16 L 129.794 108.991 Z " fill="rgb(255,255,255)"/></clipPath><g clip-path="url(#_clipPath_wvhxGNTfHocaChQ5NMd15LZfwATeIPDt)"><g><rect x="127.106" y="87.39" width="25.373" height="32.458" transform="matrix(1,0,0,1,0,0)" fill="rgb(255,255,255)"/></g></g><clipPath id="_clipPath_AtFklNY2HqNidDBHli1jfvuRvQFXQeLI"><path d=" M 140.755 116.033 C 136.563 116.088 133.125 111.252 133.02 105.182 C 132.915 99.113 136.247 94.165 140.452 94.035 C 144.657 93.905 148.082 98.816 148.187 104.885 C 148.292 110.954 144.892 115.909 140.755 116.033 Z " fill="rgb(255,255,255)"/></clipPath><g clip-path="url(#_clipPath_AtFklNY2HqNidDBHli1jfvuRvQFXQeLI)"><g><rect x="130.326" y="91.372" width="20.53" height="27.349" transform="matrix(1,0,0,1,0,0)" fill="rgb(35,31,32)"/></g></g><clipPath id="_clipPath_5uBXV8kYcEEyRCduTRZzWvyrNPtWqz7I"><path d=" M 143.171 101.665 C 143.171 102.599 142.608 103.441 141.745 103.799 C 140.881 104.156 139.888 103.959 139.227 103.298 C 138.567 102.637 138.369 101.644 138.726 100.781 C 139.084 99.918 139.926 99.355 140.861 99.355 C 142.132 99.365 143.161 100.393 143.171 101.665" fill="rgb(255,255,255)"/></clipPath><g clip-path="url(#_clipPath_5uBXV8kYcEEyRCduTRZzWvyrNPtWqz7I)"><g><rect x="135.863" y="96.692" width="9.996" height="9.996" transform="matrix(1,0,0,1,0,0)" fill="rgb(255,255,255)"/></g></g><clipPath id="_clipPath_lQd9DBKptnR1YGNsxm1eEQRIYgoe4Ouu"><path d=" M 186.368 117.432 C 186.368 117.432 193.57 99.918 182.608 97.286 C 166.649 93.527 166.005 120.764 166.005 120.764 L 186.368 117.432 Z " fill="rgb(255,255,255)"/></clipPath><g clip-path="url(#_clipPath_lQd9DBKptnR1YGNsxm1eEQRIYgoe4Ouu)"><g><rect x="163.323" y="94.239" width="28.055" height="29.207" transform="matrix(1,0,0,1,0,0)" fill="rgb(255,255,255)"/></g></g><clipPath id="_clipPath_KpbhecWGD8nPk8leCFMk7AdVimkqd6lz"><path d=" M 173.585 121.408 C 177.456 122.969 182.398 119.637 184.652 113.977 C 186.906 108.316 185.562 102.532 181.642 100.971 C 177.722 99.41 172.829 102.742 170.575 108.403 C 168.321 114.063 169.714 119.848 173.585 121.408 Z " fill="rgb(255,255,255)"/></clipPath><g clip-path="url(#_clipPath_KpbhecWGD8nPk8leCFMk7AdVimkqd6lz)"><g><rect x="166.828" y="97.918" width="21.602" height="26.556" transform="matrix(1,0,0,1,0,0)" fill="rgb(35,31,32)"/></g></g><clipPath id="_clipPath_wdtwMuQsZgbq8AuJLkergqHDVDvAxZUu"><path d=" M 180.998 107.492 C 181.029 108.768 180.02 109.826 178.744 109.857 C 177.469 109.887 176.41 108.879 176.379 107.603 C 176.349 106.328 177.357 105.269 178.632 105.238 C 179.246 105.22 179.841 105.448 180.286 105.871 C 180.73 106.295 180.987 106.879 180.998 107.492 Z " fill="rgb(255,255,255)"/></clipPath><g clip-path="url(#_clipPath_wdtwMuQsZgbq8AuJLkergqHDVDvAxZUu)"><g><rect x="173.69" y="102.544" width="9.996" height="9.996" transform="matrix(1,0,0,1,0,0)" fill="rgb(255,255,255)"/></g></g><clipPath id="_clipPath_VUB3AKzuoNP4m74NFA52rBHfSFOq7SW3"><path d=" M 146.775 172.124 C 213.239 180.664 212.917 124.734 193.521 117.804 C 182.454 113.828 171.975 122.963 156.071 119.792 C 140.489 116.695 134.63 105.449 120.343 108.13 C 96.914 112.596 96.914 165.677 146.775 172.124 Z " fill="rgb(255,255,255)"/></clipPath><g clip-path="url(#_clipPath_VUB3AKzuoNP4m74NFA52rBHfSFOq7SW3)"><g><rect x="102.47" y="105.034" width="105.041" height="70.663" transform="matrix(1,0,0,1,0,0)" fill="rgb(245,234,215)"/></g></g><path d=" M 159.954 173.381 C 155.53 173.363 151.111 173.063 146.726 172.483 L 146.726 172.483 C 133.448 170.767 122.492 165.509 115.023 157.279 C 108.763 150.448 105.143 141.611 104.811 132.352 C 104.433 119.687 110.793 109.579 120.293 107.771 C 128.691 106.192 134.11 109.282 140.384 112.849 C 144.936 115.444 149.673 118.126 156.164 119.427 C 164.134 121.012 170.841 119.427 176.762 118.083 C 182.683 116.739 188.095 115.451 193.663 117.463 C 202.55 120.64 207.331 133.417 204.328 145.952 C 202.209 154.777 196.438 162.246 188.077 167.008 C 180.534 171.244 171.114 173.381 159.954 173.381 Z  M 146.818 171.764 C 192.319 177.611 201.776 153.352 203.597 145.753 C 206.47 133.776 201.801 121.123 193.397 118.12 C 188.027 116.194 182.868 117.389 176.898 118.776 C 170.928 120.163 164.116 121.743 155.997 120.126 C 149.37 118.801 144.391 115.965 140 113.469 C 133.85 109.963 128.536 106.941 120.405 108.471 C 111.282 110.205 105.17 120.009 105.541 132.314 C 105.865 141.403 109.418 150.078 115.562 156.783 C 122.907 164.884 133.714 170.061 146.818 171.758 L 146.818 171.764 Z " fill="rgb(147,140,129)"/><clipPath id="_clipPath_wiJ1NXrT5W4hAAUR9MXNNMPSndN6ci6C"><path d=" M 178.471 135.163 C 175.245 136.724 172.185 136.024 171.659 133.603 C 171.133 131.181 173.269 128.029 176.496 126.456 C 179.722 124.883 182.782 125.595 183.308 128.016 C 183.835 130.438 181.698 133.59 178.471 135.163 Z " fill="rgb(255,255,255)"/></clipPath><g clip-path="url(#_clipPath_wiJ1NXrT5W4hAAUR9MXNNMPSndN6ci6C)"><g><rect x="168.878" y="122.938" width="17.198" height="15.737" transform="matrix(1,0,0,1,0,0)" fill="rgb(124,78,196)"/></g></g><clipPath id="_clipPath_sBaqC13KFEDQhFz5laluDMkXGoLG5ck9"><path d=" M 186.584 126.078 C 186.584 126.078 188.572 131.292 176.911 135.696 C 175.055 135.072 173.402 133.957 172.13 132.469 C 171.436 127.905 182.392 120.009 186.584 126.078 Z " fill="rgb(255,255,255)"/></clipPath><g clip-path="url(#_clipPath_sBaqC13KFEDQhFz5laluDMkXGoLG5ck9)"><g><g style="opacity:0.4;"><g opacity="0.4"><rect x="169.417" y="121.185" width="19.985" height="17.198" transform="matrix(1,0,0,1,0,0)" fill="rgb(124,78,196)"/></g></g></g></g><clipPath id="_clipPath_21byUORsknCgU6qZDRKqHhzUo0nXj9zS"><path d=" M 140.539 123.824 C 142.26 126.92 141.777 130.054 139.411 130.754 C 137.046 131.454 133.714 129.515 131.98 126.419 C 130.246 123.322 130.741 120.188 133.107 119.488 C 135.473 118.789 138.749 120.727 140.539 123.824 Z " fill="rgb(255,255,255)"/></clipPath><g clip-path="url(#_clipPath_21byUORsknCgU6qZDRKqHhzUo0nXj9zS)"><g><rect x="128.282" y="116.64" width="15.966" height="16.938" transform="matrix(1,0,0,1,0,0)" fill="rgb(124,78,196)"/></g></g><clipPath id="_clipPath_1CQWMJQQqrFU9rL0aMLVQcmpMqD9HxUA"><path d=" M 132.859 127.855 C 129.961 124.845 126.517 121.043 128.883 117.946 C 128.883 117.946 135.386 112.199 141.35 126.487" fill="rgb(255,255,255)"/></clipPath><g clip-path="url(#_clipPath_1CQWMJQQqrFU9rL0aMLVQcmpMqD9HxUA)"><g><g style="opacity:0.4;"><g opacity="0.4"><rect x="125.409" y="114.138" width="18.623" height="16.399" transform="matrix(1,0,0,1,0,0)" fill="rgb(124,78,196)"/></g></g></g></g><clipPath id="_clipPath_7s2gs55BLBJBLpSqX4XT0aroNOsbMdtQ"><path d=" M 192.065 148.59 C 187.823 152.832 182.231 154.164 179.598 151.544 C 176.966 148.924 178.31 143.326 182.553 139.077 C 186.795 134.829 192.387 133.503 195.019 136.123 C 197.651 138.743 196.363 144.341 192.065 148.59 Z " fill="rgb(255,255,255)"/></clipPath><g clip-path="url(#_clipPath_7s2gs55BLBJBLpSqX4XT0aroNOsbMdtQ)"><g><g style="opacity:0.4;"><g opacity="0.4"><rect x="175.567" y="132.091" width="23.503" height="23.49" transform="matrix(1,0,0,1,0,0)" fill="rgb(124,78,196)"/></g></g></g></g><clipPath id="_clipPath_rG3Wt9bgBCz7eyK4YSGiHjWgry0jRgru"><path d=" M 161.496 80.837 C 161.496 80.837 151.661 82.02 150.968 89.433 C 150.968 89.433 146.453 81.481 155.105 79.332 C 155.105 79.332 148.714 76.323 143.499 79.493 C 143.499 79.493 146.887 73.046 155.644 74.712 C 154.566 70.414 149.036 68.643 149.036 68.643 C 149.036 68.643 155.322 67.138 161.019 73.102 C 161.213 71.488 162.07 70.027 163.385 69.07 C 164.713 70.268 165.49 71.959 165.534 73.746 C 165.534 73.746 172.625 69.609 178.589 75.604 C 178.589 75.604 171.82 73.672 169.776 76.143 C 169.776 76.143 179.933 76.843 181.809 84.361 C 181.809 84.361 172.78 78.019 168.538 79.958 C 175.251 82.435 173.535 89.359 173.535 89.359 C 173.535 89.359 170.736 81.915 161.496 80.837 Z " fill="rgb(255,255,255)"/></clipPath><g clip-path="url(#_clipPath_rG3Wt9bgBCz7eyK4YSGiHjWgry0jRgru)"><g><rect x="140.811" y="65.788" width="43.68" height="26.333" transform="matrix(1,0,0,1,0,0)" fill="rgb(124,78,196)"/></g></g><path d=" M 151.216 90.616 L 150.646 89.613 C 150.559 89.458 148.534 85.829 149.878 82.689 C 150.547 81.135 151.922 79.989 153.971 79.283 C 152.021 78.614 147.487 77.487 143.679 79.803 L 142.564 80.484 L 143.183 79.326 C 143.915 78.085 144.903 77.015 146.081 76.186 C 147.834 74.948 150.801 73.591 155.13 74.254 C 153.804 70.588 148.98 69.002 148.936 68.984 L 147.698 68.587 L 148.936 68.284 C 149.197 68.222 155.13 66.884 160.759 72.34 C 161.122 70.917 161.964 69.662 163.143 68.786 L 163.373 68.612 L 163.596 68.798 C 164.866 69.927 165.673 71.487 165.862 73.176 C 167.646 72.353 173.684 70.173 178.868 75.375 L 179.846 76.36 L 178.515 75.982 C 178.453 75.982 173.015 74.44 170.656 75.908 C 173.133 76.279 180.565 77.902 182.187 84.305 L 182.423 85.247 L 181.624 84.689 C 181.543 84.634 173.913 79.326 169.628 80.045 C 175.468 82.875 173.932 89.409 173.913 89.477 L 173.635 90.61 L 173.226 89.52 C 171.078 84.859 166.607 81.697 161.496 81.227 C 159.811 81.487 158.171 81.987 156.628 82.714 C 153.383 84.274 151.6 86.56 151.321 89.489 L 151.216 90.616 Z  M 149.017 77.673 C 151.166 77.696 153.289 78.151 155.26 79.01 L 156.182 79.444 L 155.192 79.692 C 152.795 80.311 151.234 81.395 150.553 82.98 C 149.754 84.838 150.324 86.968 150.807 88.213 C 152.392 81.655 161.335 80.497 161.459 80.484 L 161.546 80.484 C 166.505 80.963 170.916 83.838 173.356 88.182 C 173.517 86.188 173.22 82.088 168.401 80.323 L 167.578 79.989 L 168.383 79.623 C 172.024 77.964 178.756 81.94 181.153 83.488 C 178.769 77.196 169.838 76.508 169.745 76.502 L 169.039 76.453 L 169.491 75.908 C 171.083 73.982 175.127 74.483 177.288 74.923 C 171.826 70.588 165.776 74 165.707 74.037 L 165.162 74.353 L 165.162 73.734 C 165.125 72.156 164.479 70.654 163.36 69.541 C 162.263 70.429 161.553 71.708 161.378 73.108 L 161.341 73.957 L 160.753 73.337 C 156.851 69.25 152.621 68.779 150.503 68.835 C 152.268 69.671 155.216 71.492 155.997 74.613 L 156.133 75.164 L 155.575 75.059 C 149.506 73.907 146.094 76.781 144.651 78.496 C 146.037 77.935 147.521 77.655 149.017 77.673 L 149.017 77.673 Z " fill="rgb(94,56,131)"/><clipPath id="_clipPath_fGVqzgnfBLSxWyop1H09rSGZUlbdxjqU"><path d=" M 176.539 155.576 L 176.434 155.576 C 174.69 155.129 173.269 153.867 172.619 152.188 C 172.543 152.004 172.553 151.795 172.646 151.619 C 172.74 151.443 172.907 151.318 173.102 151.278 C 173.499 151.181 173.907 151.385 174.068 151.761 C 174.533 152.945 175.529 153.84 176.756 154.176 C 177.147 154.27 177.411 154.636 177.375 155.037 C 177.247 155.382 176.906 155.601 176.539 155.576 Z  M 131.46 147.246 L 132.748 146.441 C 136.228 153.28 142.825 157.993 150.423 159.069 C 164.233 161.001 174.223 153.105 174.223 153.105 L 175.189 154.182 C 175.189 154.182 164.766 162.939 150.311 160.629 C 135.857 158.319 131.46 147.252 131.46 147.252 L 131.46 147.246 Z " fill="rgb(255,255,255)"/></clipPath><g clip-path="url(#_clipPath_fGVqzgnfBLSxWyop1H09rSGZUlbdxjqU)"><g><rect x="128.772" y="143.759" width="51.266" height="19.948" transform="matrix(1,0,0,1,0,0)" fill="rgb(35,31,32)"/></g></g><clipPath id="_clipPath_BOprVGxslKd8c1TnOFrUjvZEmcHK4YL4"><path d=" M 116.578 138.545 C 120.07 143.431 125.867 145.53 128.883 143.381 C 131.899 141.232 131.893 134.68 128.4 129.788 C 124.907 124.895 119.21 123.446 116.15 125.651 C 113.091 127.855 113.085 133.658 116.578 138.545 Z " fill="rgb(255,255,255)"/></clipPath><g clip-path="url(#_clipPath_BOprVGxslKd8c1TnOFrUjvZEmcHK4YL4)"><g><g style="opacity:0.4;"><g opacity="0.4"><rect x="111.233" y="121.959" width="22.53" height="24.946" transform="matrix(1,0,0,1,0,0)" fill="rgb(124,78,196)"/></g></g></g></g><clipPath id="_clipPath_52jkk6AS4K0HrFTLK2YyTTDSJitWgNC2"><path d=" M 129.899 148.268 L 130.004 148.268 C 131.777 148.236 133.412 147.302 134.339 145.791 C 134.53 145.432 134.414 144.988 134.073 144.769 C 133.904 144.66 133.698 144.627 133.504 144.678 C 133.31 144.729 133.146 144.858 133.051 145.035 C 132.389 146.109 131.216 146.761 129.955 146.757 C 129.756 146.744 129.563 146.82 129.427 146.966 C 129.292 147.111 129.228 147.309 129.255 147.506 C 129.232 147.88 129.503 148.207 129.874 148.255" fill="rgb(255,255,255)"/></clipPath><g clip-path="url(#_clipPath_52jkk6AS4K0HrFTLK2YyTTDSJitWgNC2)"><g><rect x="126.567" y="141.982" width="10.584" height="8.974" transform="matrix(1,0,0,1,0,0)" fill="rgb(35,31,32)"/></g></g></g><path d="M 57.5 373 L 262.5 373 C 274.918 373 285 383.082 285 395.5 L 285 395.5 C 285 407.918 274.918 418 262.5 418 L 57.5 418 C 45.082 418 35 407.918 35 395.5 L 35 395.5 C 35 383.082 45.082 373 57.5 373 Z" style="stroke:none;fill:#FFFFFF;stroke-miterlimit:10;"/><text transform="matrix(1,0,0,1,45.915,402.198)" style="font-family:'Nunito';font-weight:400;font-size:18px;font-style:normal;fill:#aeecef;stroke:none;">Password</text></g></svg>
