<?xml version="1.0" standalone="no"?><!-- Generator: Gravit.io --><svg xmlns="http://www.w3.org/2000/svg" xmlns:xlink="http://www.w3.org/1999/xlink" style="isolation:isolate" viewBox="10 9.75 40 40" width="40px" height="40px"><g><circle vector-effect="non-scaling-stroke" cx="29.999999999999968" cy="29.749999999999996" r="19.999999999999996" fill="rgb(124,78,196)"/><path d="M 21.401 29.032 L 30.071 20.362 C 30.605 19.827 31.473 19.827 32.007 20.362 L 33.606 21.961 C 34.141 22.495 34.141 23.363 33.606 23.897 L 24.936 32.567 C 24.402 33.102 23.534 33.102 23 32.567 L 21.401 30.968 C 20.866 30.434 20.866 29.566 21.401 29.032 Z" style="stroke:none;fill:#FFFFFF;stroke-miterlimit:10;"/><path d="M 24.936 27.433 L 33.606 36.103 C 34.141 36.637 34.141 37.505 33.606 38.039 L 32.007 39.638 C 31.473 40.173 30.605 40.173 30.071 39.638 L 21.401 30.968 C 20.866 30.434 20.866 29.566 21.401 29.032 L 23 27.433 C 23.534 26.898 24.402 26.898 24.936 27.433 Z" style="stroke:none;fill:#FFFFFF;stroke-miterlimit:10;"/></g></svg>