<?xml version="1.0" standalone="no"?><!-- Generator: Gravit.io --><svg xmlns="http://www.w3.org/2000/svg" xmlns:xlink="http://www.w3.org/1999/xlink" style="isolation:isolate" viewBox="264.5 510.5 55 54.999" width="55px" height="54.999px"><g><circle vector-effect="non-scaling-stroke" cx="292" cy="537.9999999999999" r="20" fill="rgb(124,78,196)"/><clipPath id="_clipPath_PreixTfaVY39YeKbISfUEK8F3LKTF0ro"><path d=" M 264.5 510.5 L 264.5 565.5 L 319.5 565.5 L 319.5 510.5 L 264.5 510.5 Z " fill="rgb(255,255,255)"/></clipPath><g clip-path="url(#_clipPath_PreixTfaVY39YeKbISfUEK8F3LKTF0ro)"><path d=" M 300.642 527.142 C 300.924 527.347 301.039 527.621 300.988 527.963 L 297.703 547.677 C 297.66 547.925 297.523 548.118 297.292 548.255 C 297.172 548.323 297.039 548.357 296.894 548.357 C 296.8 548.357 296.697 548.336 296.586 548.293 L 290.772 545.919 L 287.666 549.705 C 287.512 549.902 287.302 550 287.037 550 C 286.926 550 286.832 549.983 286.755 549.949 C 286.592 549.889 286.462 549.788 286.363 549.647 C 286.265 549.506 286.216 549.35 286.216 549.179 L 286.216 544.699 L 297.305 531.108 L 283.585 542.98 L 278.515 540.9 C 278.199 540.781 278.028 540.545 278.002 540.195 C 277.985 539.852 278.122 539.6 278.413 539.437 L 299.769 527.116 C 299.897 527.039 300.034 527.001 300.18 527.001 C 300.351 527.001 300.505 527.048 300.642 527.142 Z " fill="rgb(255,255,255)"/></g></g></svg>