<?xml version="1.0" standalone="no"?><!-- Generator: Gravit.io --><svg xmlns="http://www.w3.org/2000/svg" xmlns:xlink="http://www.w3.org/1999/xlink" style="isolation:isolate" viewBox="0 0 1024 1024" width="1024px" height="1024px"><defs><clipPath id="_clipPath_rmk5QHzClzydgfN0mv5vAEXNdW3kI35X"><rect width="1024" height="1024"/></clipPath></defs><g clip-path="url(#_clipPath_rmk5QHzClzydgfN0mv5vAEXNdW3kI35X)"><g><clipPath id="_clipPath_yqx0gMXvCLUJlVrejCwtbHGB8bKT2WXY"><path d=" M 662.641 709.684 C 675.084 709.684 682.069 716.549 682.069 716.549 L 683.933 706.895 C 683.933 707.244 702.705 707.592 709.757 712.017 C 710.924 712.835 708.939 752.966 708.939 752.966 L 682.539 756.224 C 682.539 756.224 679.28 739.356 664.505 739.356 C 656.017 739.356 648.683 748.434 648.683 766.575 C 648.683 786.003 660.321 792.627 668.581 792.627 C 679.053 792.627 686.963 783.791 688.586 781.458 C 696.027 789.141 710.039 801.812 710.039 801.812 C 710.039 801.812 699.688 826.121 668.473 826.121 C 642.877 826.121 614.961 806.223 614.961 766.562 C 614.827 724.916 639.606 709.684 662.641 709.684 Z  M 757.209 799.144 C 763.605 799.144 768.499 794.263 768.499 783.67 C 768.499 775.29 765.24 766.803 757.209 766.803 C 747.206 766.803 743.948 775.062 743.948 783.67 C 743.948 793.552 751.162 799.13 757.209 799.13 L 757.209 799.144 Z  M 756.632 739.705 C 779.896 739.705 796.857 755.299 796.857 782.866 C 796.857 805.553 784.789 827.18 756.847 827.18 C 731.841 827.18 714.155 814.147 714.155 782.517 C 714.061 751.089 733.248 739.692 756.632 739.692 L 756.632 739.705 Z  M 809.675 763.196 L 799.324 762.727 C 799.324 762.727 796.535 746.087 797.702 740.858 L 846.789 741.327 C 846.789 741.327 847.955 760.099 847.607 762.781 L 838.878 763.129 L 847.607 783.134 L 867.263 748.353 L 882.146 748.823 L 904.015 783.483 L 911.926 763.585 L 902.621 763.116 L 902.741 741.247 C 903.559 740.429 951.48 740.898 951.359 740.898 C 952.138 748.162 952.527 755.462 952.526 762.767 L 942.644 763.464 C 942.644 763.464 926.353 810.071 916.297 824.954 C 916.297 824.954 903.036 826.121 896.051 824.485 L 873.713 788.658 L 853.815 824.954 C 853.815 824.954 838.932 826.121 831.946 824.485 C 832.12 824.485 812.115 776.685 809.675 763.183 L 809.675 763.196 Z " fill="rgb(255,255,255)"/></clipPath><g clip-path="url(#_clipPath_yqx0gMXvCLUJlVrejCwtbHGB8bKT2WXY)"><g><rect x="609.25" y="701.076" width="349.095" height="131.91" transform="matrix(1,0,0,1,0,0)" fill="rgb(124,78,196)"/></g></g><clipPath id="_clipPath_KRepMXJsqaz2dr9q61JCm4489RwckdAN"><path d=" M 72.292 802.777 C 72.989 802.08 84.158 801.155 84.158 801.155 L 81.825 733.336 C 81.825 733.336 72.292 733.685 71.474 732.867 C 71.474 732.867 72.171 708.906 72.171 708.906 L 119.636 709.724 L 120.803 732.988 L 109.285 734.154 L 110.103 752.188 L 141.746 753.703 L 141.398 733.457 L 131.744 732.532 C 131.623 732.532 130.121 710.086 130.121 710.086 L 184.089 710.556 C 184.089 710.556 183.62 733.001 183.271 733.001 C 183.271 733.001 171.204 734.972 171.204 734.972 L 173.296 799.881 L 184.586 801.222 L 184.586 824.713 C 184.586 824.713 133.634 825.41 133.634 825.062 C 133.634 825.062 133.165 801.101 133.165 801.101 L 144.683 799.935 L 144.213 778.294 L 110.827 777.369 C 110.827 777.369 110.478 801.329 111.296 801.329 C 111.296 801.329 122.345 800.632 122.345 801.798 C 122.345 801.798 124.678 823.439 123.86 823.788 C 123.86 823.788 72.681 822.97 72.681 822.97 C 72.681 822.97 71.715 803.434 72.292 802.777 Z  M 243.206 782.383 C 243.206 773.655 237.736 766.441 231.139 766.441 C 222.879 766.441 217.529 772.139 217.529 782.035 C 217.529 791.568 223.925 797.628 230.562 797.628 C 237.709 797.736 243.206 791.568 243.206 782.383 Z  M 188.233 781.565 C 188.233 750.391 208.238 741.207 224.998 741.207 C 233.755 741.407 242.24 744.289 249.307 749.466 L 249.307 741.207 C 249.307 741.207 284.088 740.04 284.088 740.858 C 284.088 740.858 285.254 762.727 285.013 762.727 C 285.013 762.727 273.147 765.167 272.945 765.516 C 272.476 765.864 273.294 800.176 273.294 800.176 C 273.294 800.176 286.903 800.055 287.131 801.101 C 287.359 802.147 287.48 824.136 286.783 824.136 C 286.313 824.136 249.562 823.439 249.562 822.97 C 249.562 822.501 247.939 814.59 247.939 814.59 C 247.939 814.59 241.423 825.41 224.676 825.41 C 209.444 825.424 188.233 815.421 188.233 781.565 Z  M 455.203 800.645 C 463.114 800.645 466.721 794.37 466.721 783.429 C 466.721 772.488 462.296 766.79 455.9 766.79 C 448.807 766.79 444.382 772.837 444.382 783.188 C 444.329 793.083 448.713 800.645 455.23 800.645 L 455.203 800.645 Z  M 409.95 838.188 L 409.83 769.672 L 397.762 769.672 C 397.642 759.201 396.596 745.363 396.596 745.363 C 396.596 745.363 432.892 739.437 433.71 740.241 C 434.058 741.167 437.196 747.455 437.196 747.455 C 437.196 747.455 441.969 740.241 458.649 740.241 C 473.773 740.241 496.192 750.123 496.192 783.979 C 496.192 818.183 476.294 825.973 459.547 825.973 C 445.589 825.973 440.467 820.744 440.467 820.744 L 440.467 837.035 C 440.467 837.035 456.41 838.899 457.107 839.368 C 458.032 840.186 457.576 861.585 457.804 861.585 C 458.032 861.585 398.245 861.934 398.473 861.585 L 397.548 839.247 L 409.95 838.188 Z  M 350.74 800.645 C 358.651 800.645 362.257 794.37 362.257 783.429 C 362.257 772.488 357.833 766.79 351.437 766.79 C 344.344 766.79 339.919 772.837 339.919 783.188 C 339.839 793.083 344.371 800.645 350.78 800.645 L 350.74 800.645 Z  M 305.487 838.188 L 305.366 769.672 L 293.299 769.672 C 293.178 759.201 292.133 745.363 292.133 745.363 C 292.133 745.363 328.429 739.437 329.246 740.241 C 329.595 741.167 332.733 747.455 332.733 747.455 C 332.733 747.455 337.506 740.241 354.186 740.241 C 369.31 740.241 391.729 750.123 391.729 783.979 C 391.729 818.183 371.831 825.973 355.084 825.973 C 341.126 825.973 336.004 820.744 336.004 820.744 L 336.004 837.035 C 336.004 837.035 351.946 838.899 352.644 839.368 C 353.569 840.186 353.113 861.585 353.341 861.585 C 353.569 861.585 293.782 861.934 294.01 861.585 L 293.085 839.247 L 305.487 838.188 Z  M 532.823 813.906 C 532.823 813.906 509.788 776.095 507.347 762.727 L 498.27 762.258 C 498.27 762.258 495.481 746.168 496.648 740.804 L 545.735 740.684 C 545.735 740.684 546.901 759.522 546.553 762.325 L 537.368 762.673 L 549.811 785.816 L 561.798 763.129 L 553.539 762.66 L 553.19 741.207 C 554.008 740.389 600.534 741.904 600.306 741.904 C 601.102 748.892 601.491 755.921 601.473 762.955 L 592.395 763.424 C 592.395 763.424 547.84 851.127 537.838 866.024 C 537.838 866.024 514.802 861.371 509.452 852.066 C 508.514 852.066 533.52 814.134 532.823 813.906 Z " fill="rgb(255,255,255)"/></clipPath><g clip-path="url(#_clipPath_KRepMXJsqaz2dr9q61JCm4489RwckdAN)"><g><rect x="65.427" y="703.047" width="541.852" height="168.903" transform="matrix(1,0,0,1,0,0)" fill="rgb(1,1,1)"/></g></g></g><g><clipPath id="_clipPath_pPRGHX9Sb1gMn9DhBwW9bXKiKFj5WuLR"><path d=" M 363.144 351.752 C 360.926 358.378 323.333 360.825 318.694 361.258 C 296.138 363.246 260.073 366.789 242.64 348.515 C 226.507 331.719 232.904 302.638 249.063 288.161 C 265.859 272.869 287.982 273.557 307.887 277.329 C 319.391 279.616 330.698 282.795 341.709 286.836 C 345.252 288.161 380.195 302.128 379.073 305.62 C 378.844 305.62 363.144 351.828 363.144 351.828" fill="rgb(255,255,255)"/></clipPath><g clip-path="url(#_clipPath_pPRGHX9Sb1gMn9DhBwW9bXKiKFj5WuLR)"><g><rect x="222.225" y="263.923" width="167.935" height="110.054" transform="matrix(1,0,0,1,0,0)" fill="rgb(124,78,196)"/></g></g><path d=" M 290.021 364.444 C 271.848 364.444 253.013 361.539 241.595 349.483 C 234.719 342.149 231.185 332.296 231.833 322.263 C 232.432 308.829 238.259 296.161 248.069 286.963 C 266.496 270.244 291.193 272.563 308.168 275.774 C 319.751 278.074 331.136 281.278 342.219 285.357 C 344.156 286.097 353.79 289.92 362.761 293.972 C 380.195 301.848 381.112 304.167 380.602 306.002 L 380.195 307.047 C 378.436 311.89 370.204 335.924 364.673 352.236 C 363.577 355.473 357.613 359.602 320.911 362.584 L 318.949 362.737 L 317.776 362.737 C 309.493 363.578 299.859 364.444 290.021 364.444 Z  M 286.605 276.513 C 274.168 276.513 260.889 279.368 250.031 289.257 C 240.808 297.885 235.321 309.774 234.739 322.39 C 234.165 331.602 237.388 340.647 243.659 347.419 C 260.328 364.954 294.634 361.896 317.343 359.882 L 318.515 359.882 L 320.503 359.704 C 357.129 356.722 361.283 352.567 361.665 351.369 L 361.665 351.369 C 361.665 351.369 365.59 339.824 369.541 328.252 C 374.638 313.699 376.499 307.863 377.544 305.645 C 375.785 302.638 351.47 292.112 341.097 288.238 C 330.163 284.222 318.931 281.069 307.505 278.807 C 300.625 277.39 293.629 276.613 286.605 276.488 L 286.605 276.513 Z  M 377.62 305.136 C 377.582 305.278 377.582 305.427 377.62 305.569 L 377.799 305.187 L 377.62 305.136 Z " fill="rgb(94,56,131)"/><clipPath id="_clipPath_iKumsGW0X8eKIFjQ6QID4WCbuqiLmwIQ"><path d=" M 310.844 342.474 C 297.794 343.8 277.022 346.221 267.057 335.618 C 257.983 325.882 261.755 308.653 271.033 299.809 C 280.973 290.531 290.709 291.398 302 293.386 C 308.626 294.482 322.39 298.254 328.099 304.881 C 333.808 311.507 350.986 336.281 310.844 342.474 Z " fill="rgb(255,255,255)"/></clipPath><g clip-path="url(#_clipPath_iKumsGW0X8eKIFjQ6QID4WCbuqiLmwIQ)"><g><rect x="250.923" y="281.025" width="96.953" height="73.709" transform="matrix(1,0,0,1,0,0)" fill="rgb(245,234,215)"/></g></g><clipPath id="_clipPath_BBhfUQ92itcMtRw4ITCK7XdvVv340CXe"><path d=" M 656.578 399.617 C 656.808 405.81 691.725 418.63 696.16 420.414 C 717.161 428.596 750.55 441.645 772.443 431.246 C 792.833 421.51 795.229 394.978 784.371 377.953 C 772.876 360.112 751.416 354.504 731.536 351.854 C 719.947 350.419 708.257 349.975 696.593 350.528 C 692.846 350.758 655.457 352.516 655.457 355.83 L 656.553 399.617" fill="rgb(255,255,255)"/></clipPath><g clip-path="url(#_clipPath_BBhfUQ92itcMtRw4ITCK7XdvVv340CXe)"><g><rect x="644.395" y="339.187" width="157.384" height="106.868" transform="matrix(1,0,0,1,0,0)" fill="rgb(124,78,196)"/></g></g><path d=" M 753.073 436.522 C 733.652 436.522 711.732 427.984 695.752 421.765 L 693.611 420.95 C 659.866 407.951 655.176 402.854 655.074 399.591 L 655.074 399.591 L 653.978 355.804 C 653.978 353.765 653.978 351.267 695.293 349.05 L 696.517 349.05 C 708.274 348.476 720.059 348.92 731.74 350.375 C 750.448 352.924 773.463 358.175 785.645 377.137 C 792.04 387.357 793.887 399.779 790.743 411.417 C 788.276 420.712 781.844 428.449 773.157 432.572 C 766.84 435.368 759.978 436.718 753.073 436.522 Z  M 658.056 399.489 C 658.056 400.585 660.911 405.147 694.682 418.146 L 696.695 418.936 C 716.906 426.812 750.524 439.912 771.78 429.819 C 779.685 426.043 785.535 418.991 787.786 410.525 C 790.713 399.715 789.014 388.175 783.097 378.666 C 771.576 360.825 749.377 355.728 731.307 353.179 C 719.804 351.737 708.198 351.293 696.619 351.854 L 695.421 351.854 C 664.709 353.51 658.286 355.345 656.935 356.085 L 658.056 399.489 Z " fill="rgb(94,56,131)"/><clipPath id="_clipPath_OU1LR6NlHPb37CiXrqG3fBj7kv3gkgHp"><path d=" M 709.184 406.371 C 721.341 411.239 740.355 419.114 752.971 412.998 C 764.695 407.237 766.02 391.537 759.598 381.368 C 752.971 370.765 743.464 368.624 731.969 366.993 C 725.343 366.101 711.172 365.438 703.679 369.542 C 696.185 373.645 672.763 390.008 709.184 406.371 Z " fill="rgb(255,255,255)"/></clipPath><g clip-path="url(#_clipPath_OU1LR6NlHPb37CiXrqG3fBj7kv3gkgHp)"><g><rect x="678.242" y="355.294" width="96.214" height="71.033" transform="matrix(1,0,0,1,0,0)" fill="rgb(245,234,215)"/></g></g><clipPath id="_clipPath_5tjkKe8NUGlrSpA1FXtoqE9XfJVGBK4a"><path d=" M 438.535 269.071 C 439.198 268.638 415.316 230.84 427.473 201.403 C 433.004 189.245 451.788 179.076 450.259 167.785 C 446.946 153.181 416.641 161.591 408.46 164.905 C 362.914 183.256 335.923 255.996 367.12 320.785 C 366.89 321.014 438.484 269.046 438.484 269.046" fill="rgb(255,255,255)"/></clipPath><g clip-path="url(#_clipPath_5tjkKe8NUGlrSpA1FXtoqE9XfJVGBK4a)"><g><rect x="342.652" y="148.44" width="118.771" height="183.432" transform="matrix(1,0,0,1,0,0)" fill="rgb(205,207,208)"/></g></g><path d=" M 366.916 322.416 C 366.559 322.416 366.355 322.161 366.024 321.779 L 365.82 321.447 C 349.648 288.454 347.804 250.251 360.722 215.854 C 370.458 190.749 387.637 171.684 407.899 163.503 C 413.175 161.362 435.171 154.506 445.977 160.164 C 448.906 161.585 451.021 164.272 451.712 167.454 C 452.731 174.896 446.614 181.319 439.886 188.098 C 435.474 192.111 431.738 196.81 428.824 202.014 C 422.198 218.071 425.485 239.506 438.637 265.732 C 440.115 268.689 440.523 269.504 439.376 270.295 L 371.045 319.816 C 368.445 321.702 367.476 322.416 366.916 322.416 Z  M 434.916 160.98 C 426.065 161.307 417.33 163.107 409.072 166.307 C 389.574 174.157 372.982 192.635 363.551 216.95 C 351.133 249.985 352.651 286.646 367.757 318.542 C 375.658 312.833 414.628 284.593 436.776 268.51 L 436.037 267.032 C 422.478 240.016 419.139 217.74 426.148 200.765 C 429.186 195.22 433.122 190.216 437.796 185.957 C 443.887 179.713 449.622 173.8 448.832 167.938 C 448.28 165.694 446.744 163.821 444.652 162.84 C 441.588 161.467 438.245 160.83 434.89 160.98 L 434.916 160.98 Z " fill="rgb(123,124,124)"/><clipPath id="_clipPath_HzwCujlOUYOBK0cMOkbMA5bqSz7ciUPT"><path d=" M 422.835 261.756 C 400.712 198.038 434.763 175.508 434.763 175.508 C 387.305 191.666 408.919 266.854 408.919 266.854 L 422.835 261.756 Z " fill="rgb(255,255,255)"/></clipPath><g clip-path="url(#_clipPath_HzwCujlOUYOBK0cMOkbMA5bqSz7ciUPT)"><g><rect x="392.938" y="164.472" width="52.911" height="113.444" transform="matrix(1,0,0,1,0,0)" fill="rgb(255,255,255)"/></g></g><clipPath id="_clipPath_FWNmGkoP2bIpOfEItRMpntwWL0qrjjHT"><path d=" M 658.566 246.948 C 659.458 233.465 647.734 215.777 654.131 206.704 C 664.071 195.209 686.628 217.103 692.362 223.959 C 723.992 261.552 713.364 338.498 655.202 380.731 L 616.512 301.338 C 616.334 300.471 655.253 278.578 658.566 246.948 Z " fill="rgb(255,255,255)"/></clipPath><g clip-path="url(#_clipPath_FWNmGkoP2bIpOfEItRMpntwWL0qrjjHT)"><g><rect x="605.502" y="192.38" width="115.432" height="199.412" transform="matrix(1,0,0,1,0,0)" fill="rgb(205,207,208)"/></g></g><path d=" M 654.692 382.974 L 615.11 301.695 C 614.83 300.573 615.289 300.242 618.245 298.152 C 627.166 291.857 654.335 272.665 657.088 246.821 C 656.987 240.737 655.893 234.711 653.851 228.98 C 651.302 220.059 648.754 211.623 652.933 205.786 C 655.042 203.203 658.241 201.759 661.574 201.887 C 673.323 201.887 688.998 217.51 693.535 222.939 C 707.578 239.659 713.771 264.534 710.509 291.245 C 705.691 327.677 686.001 360.487 656.119 381.878 L 654.692 382.974 Z  M 618.398 301.72 L 655.814 378.462 C 684.243 357.537 702.925 325.935 707.553 290.939 C 710.713 265.044 704.774 240.984 691.241 224.902 C 685.786 218.403 671.361 204.971 661.523 204.894 C 659.126 204.826 656.825 205.836 655.253 207.647 C 652.041 212.184 654.31 219.957 656.68 228.164 C 658.837 234.23 659.966 240.613 660.019 247.05 L 660.019 247.05 C 657.164 274.322 629.128 294.074 619.927 300.573 L 618.398 301.72 Z " fill="rgb(123,124,124)"/><clipPath id="_clipPath_lccpYDta0Ipv6owNQO6wRdW5f0ki3Oln"><path d=" M 634.022 302.23 C 683.773 256.353 664.097 220.671 664.097 220.671 C 698.377 257.373 643.987 313.317 643.987 313.317 L 634.022 302.23 Z " fill="rgb(255,255,255)"/></clipPath><g clip-path="url(#_clipPath_lccpYDta0Ipv6owNQO6wRdW5f0ki3Oln)"><g><rect x="622.96" y="209.584" width="63.514" height="114.769" transform="matrix(1,0,0,1,0,0)" fill="rgb(255,255,255)"/></g></g><clipPath id="_clipPath_pt7x0ZsdtZ2afHP0t8NFNHesVLrNJ0Oe"><path d=" M 339.695 406.83 C 339.695 406.83 323.766 239.888 473.682 252.938 L 595.307 276.157 C 595.307 276.157 697.026 303.581 666.518 452.375 C 666.518 452.375 514.844 539.949 339.925 405.275" fill="rgb(255,255,255)"/></clipPath><g clip-path="url(#_clipPath_pt7x0ZsdtZ2afHP0t8NFNHesVLrNJ0Oe)"><g><rect x="328.15" y="241.137" width="355.114" height="250.259" transform="matrix(1,0,0,1,0,0)" fill="rgb(124,78,196)"/></g></g><path d=" M 544.893 481.813 C 491.09 481.813 417.686 466.827 339.517 406.83 L 338.217 406.83 C 337.177 391.517 337.775 376.138 340.001 360.953 C 343.391 337.453 352.337 304.498 375.683 280.974 C 399.03 257.449 431.934 247.534 473.835 251.179 L 595.587 274.729 C 596.76 275.035 621.814 282.019 643.478 307.531 C 679.593 350.07 676.611 409.965 667.971 452.809 L 667.843 453.471 L 667.257 453.803 C 666.875 454.032 628.364 475.926 568.928 480.947 C 561.46 481.431 553.406 481.813 544.893 481.813 Z  M 340.995 404.23 C 430.889 473.377 514.308 482.425 568.673 477.837 C 623.496 473.198 660.197 454.108 665.167 451.407 C 673.68 409.404 676.356 350.962 641.311 309.545 C 629.083 294.816 613.021 283.754 594.899 277.584 L 473.427 254.34 C 432.647 250.797 400.38 260.533 377.799 283.293 C 338.523 322.926 340.231 390.543 341.021 404.23 L 340.995 404.23 Z " fill="rgb(94,56,131)"/><clipPath id="_clipPath_NgX9H365vE7zwnDibzReF9fc90My1Q55"><path d=" M 387.688 396.635 C 387.688 396.635 387.917 311.737 433.565 319.256 C 495.269 329.196 459.664 430.252 459.664 430.252 L 387.688 396.635 Z " fill="rgb(255,255,255)"/></clipPath><g clip-path="url(#_clipPath_NgX9H365vE7zwnDibzReF9fc90My1Q55)"><g><rect x="376.626" y="307.735" width="104.421" height="133.579" transform="matrix(1,0,0,1,0,0)" fill="rgb(255,255,255)"/></g></g><clipPath id="_clipPath_fVRkF6xpuWainkh5gBkvGXE8OLvDWqrN"><path d=" M 432.8 425.614 C 415.545 425.843 401.4 405.938 400.967 380.96 C 400.533 355.983 414.245 335.618 431.551 335.083 C 448.857 334.548 462.952 354.759 463.385 379.737 C 463.818 404.714 449.826 425.104 432.8 425.614 Z " fill="rgb(255,255,255)"/></clipPath><g clip-path="url(#_clipPath_fVRkF6xpuWainkh5gBkvGXE8OLvDWqrN)"><g><rect x="389.88" y="324.124" width="84.49" height="112.552" transform="matrix(1,0,0,1,0,0)" fill="rgb(35,31,32)"/></g></g><clipPath id="_clipPath_5WWKcVasggw3fzH5QNFPVANA5FOIOkHM"><path d=" M 442.74 366.483 C 442.74 370.328 440.424 373.795 436.872 375.266 C 433.319 376.738 429.23 375.925 426.511 373.206 C 423.792 370.487 422.979 366.398 424.45 362.845 C 425.922 359.293 429.388 356.977 433.233 356.977 C 438.467 357.018 442.699 361.25 442.74 366.483" fill="rgb(255,255,255)"/></clipPath><g clip-path="url(#_clipPath_5WWKcVasggw3fzH5QNFPVANA5FOIOkHM)"><g><rect x="412.665" y="346.017" width="41.136" height="41.136" transform="matrix(1,0,0,1,0,0)" fill="rgb(255,255,255)"/></g></g><clipPath id="_clipPath_5rsSUCwZko7F7Ryalc6ypvbAVqlRPlfo"><path d=" M 620.514 431.374 C 620.514 431.374 650.155 359.296 605.043 348.464 C 539.362 332.993 536.712 445.086 536.712 445.086 L 620.514 431.374 Z " fill="rgb(255,255,255)"/></clipPath><g clip-path="url(#_clipPath_5rsSUCwZko7F7Ryalc6ypvbAVqlRPlfo)"><g><rect x="525.676" y="335.924" width="115.457" height="120.198" transform="matrix(1,0,0,1,0,0)" fill="rgb(255,255,255)"/></g></g><clipPath id="_clipPath_mo5csXAXrYGWjOttvufKDzXST7EMRbHZ"><path d=" M 567.908 447.737 C 583.838 454.159 604.176 440.447 613.454 417.152 C 622.731 393.857 617.2 370.052 601.067 363.629 C 584.933 357.206 564.799 370.918 555.521 394.213 C 546.244 417.509 551.979 441.314 567.908 447.737 Z " fill="rgb(255,255,255)"/></clipPath><g clip-path="url(#_clipPath_mo5csXAXrYGWjOttvufKDzXST7EMRbHZ)"><g><rect x="540.101" y="351.064" width="88.899" height="109.289" transform="matrix(1,0,0,1,0,0)" fill="rgb(35,31,32)"/></g></g><clipPath id="_clipPath_Hztd55K78bXSDWmNnIeustNWo5rPDuv1"><path d=" M 598.416 390.467 C 598.541 395.715 594.389 400.071 589.141 400.197 C 583.892 400.324 579.535 396.172 579.408 390.924 C 579.281 385.675 583.432 381.318 588.68 381.189 C 591.205 381.114 593.656 382.053 595.485 383.795 C 597.314 385.538 598.37 387.941 598.416 390.467 Z " fill="rgb(255,255,255)"/></clipPath><g clip-path="url(#_clipPath_Hztd55K78bXSDWmNnIeustNWo5rPDuv1)"><g><rect x="568.341" y="370.103" width="41.136" height="41.136" transform="matrix(1,0,0,1,0,0)" fill="rgb(255,255,255)"/></g></g><clipPath id="_clipPath_UcDZ8xqtg8CplW27RP3YO4Us88nvdcNC"><path d=" M 457.574 656.452 C 731.103 691.598 729.777 461.423 649.951 432.903 C 604.406 416.54 561.281 454.134 495.83 441.084 C 431.704 428.341 407.593 382.056 348.794 393.092 C 252.376 411.468 252.376 629.919 457.574 656.452 Z " fill="rgb(255,255,255)"/></clipPath><g clip-path="url(#_clipPath_UcDZ8xqtg8CplW27RP3YO4Us88nvdcNC)"><g><rect x="275.238" y="380.348" width="432.289" height="290.809" transform="matrix(1,0,0,1,0,0)" fill="rgb(245,234,215)"/></g></g><path d=" M 511.811 661.626 C 493.604 661.553 475.42 660.319 457.37 657.93 L 457.37 657.93 C 402.725 650.87 357.638 629.231 326.901 595.359 C 301.139 567.248 286.239 530.877 284.872 492.773 C 283.318 440.651 309.493 399.056 348.59 391.614 C 383.151 385.115 405.452 397.833 431.271 412.513 C 450.004 423.192 469.502 434.228 496.212 439.581 C 529.015 446.105 556.617 439.581 580.983 434.05 C 605.349 428.519 627.625 423.218 650.538 431.501 C 687.112 444.576 706.788 497.156 694.427 548.743 C 685.71 585.062 661.956 615.799 627.548 635.399 C 596.505 652.832 557.739 661.626 511.811 661.626 Z  M 457.752 654.973 C 645.007 679.033 683.926 579.2 691.419 547.927 C 703.245 498.635 684.028 446.564 649.442 434.203 C 627.344 426.276 606.113 431.195 581.544 436.905 C 556.974 442.614 528.938 449.113 495.524 442.461 C 468.253 437.007 447.761 425.333 429.691 415.062 C 404.382 400.636 382.514 388.198 349.049 394.494 C 311.506 401.63 286.351 441.977 287.88 492.62 C 289.211 530.023 303.832 565.726 329.118 593.32 C 359.346 626.657 403.821 647.964 457.752 654.948 L 457.752 654.973 Z " fill="rgb(147,140,129)"/><clipPath id="_clipPath_MGvlUqINzF4BtD3i1WENf1a4htpv5P0i"><path d=" M 588.017 504.344 C 574.739 510.767 562.148 507.887 559.981 497.921 C 557.815 487.956 566.608 474.983 579.887 468.509 C 593.166 462.035 605.757 464.966 607.923 474.932 C 610.089 484.897 601.296 497.87 588.017 504.344 Z " fill="rgb(255,255,255)"/></clipPath><g clip-path="url(#_clipPath_MGvlUqINzF4BtD3i1WENf1a4htpv5P0i)"><g><rect x="548.538" y="454.032" width="70.778" height="64.763" transform="matrix(1,0,0,1,0,0)" fill="rgb(124,78,196)"/></g></g><clipPath id="_clipPath_VUXaVihnbAwxN7jOKhliSjGyyh0jrtJG"><path d=" M 621.406 466.954 C 621.406 466.954 629.587 488.414 581.595 506.536 C 573.956 503.97 567.156 499.381 561.919 493.257 C 559.064 474.473 604.151 441.977 621.406 466.954 Z " fill="rgb(255,255,255)"/></clipPath><g clip-path="url(#_clipPath_VUXaVihnbAwxN7jOKhliSjGyyh0jrtJG)"><g><g style="opacity:0.4;"><g opacity="0.4"><rect x="550.755" y="446.819" width="82.247" height="70.778" transform="matrix(1,0,0,1,0,0)" fill="rgb(124,78,196)"/></g></g></g></g><clipPath id="_clipPath_FzXu3kmFRMlIKNnfeXykinogV4vST8co"><path d=" M 431.908 457.677 C 438.994 470.42 437.006 483.317 427.269 486.197 C 417.533 489.077 403.821 481.099 396.685 468.356 C 389.548 455.612 391.587 442.716 401.323 439.836 C 411.06 436.956 424.542 444.933 431.908 457.677 Z " fill="rgb(255,255,255)"/></clipPath><g clip-path="url(#_clipPath_FzXu3kmFRMlIKNnfeXykinogV4vST8co)"><g><rect x="381.469" y="428.111" width="65.706" height="69.708" transform="matrix(1,0,0,1,0,0)" fill="rgb(124,78,196)"/></g></g><clipPath id="_clipPath_1gIG863uedBiKpMRi8l635lSPHuEzybu"><path d=" M 400.304 474.269 C 388.376 461.882 374.205 446.233 383.941 433.489 C 383.941 433.489 410.703 409.837 435.247 468.636" fill="rgb(255,255,255)"/></clipPath><g clip-path="url(#_clipPath_1gIG863uedBiKpMRi8l635lSPHuEzybu)"><g><g style="opacity:0.4;"><g opacity="0.4"><rect x="369.643" y="417.815" width="76.64" height="67.49" transform="matrix(1,0,0,1,0,0)" fill="rgb(124,78,196)"/></g></g></g></g><clipPath id="_clipPath_QCSBvLIRPWjHTNYUoE5MymNif830JetU"><path d=" M 643.962 559.6 C 626.503 577.059 603.488 582.539 592.656 571.758 C 581.824 560.976 587.355 537.936 604.814 520.452 C 622.272 502.967 645.287 497.513 656.119 508.294 C 666.951 519.075 661.65 542.116 643.962 559.6 Z " fill="rgb(255,255,255)"/></clipPath><g clip-path="url(#_clipPath_QCSBvLIRPWjHTNYUoE5MymNif830JetU)"><g><g style="opacity:0.4;"><g opacity="0.4"><rect x="576.064" y="491.702" width="96.724" height="96.673" transform="matrix(1,0,0,1,0,0)" fill="rgb(124,78,196)"/></g></g></g></g><clipPath id="_clipPath_1UEmBD6QWSLOUvht1gZ49ct2PBBpjE3l"><path d=" M 518.157 280.77 C 518.157 280.77 477.683 285.638 474.829 316.146 C 474.829 316.146 456.248 283.42 491.854 274.576 C 491.854 274.576 465.551 262.19 444.091 275.239 C 444.091 275.239 458.033 248.707 494.072 255.563 C 489.637 237.875 466.877 230.585 466.877 230.585 C 466.877 230.585 492.746 224.392 516.194 248.936 C 516.991 242.292 520.519 236.28 525.931 232.344 C 531.397 237.271 534.595 244.23 534.775 251.587 C 534.775 251.587 563.958 234.561 588.502 259.233 C 588.502 259.233 560.644 251.281 552.233 261.45 C 552.233 261.45 594.032 264.331 601.755 295.272 C 601.755 295.272 564.595 269.173 547.136 277.151 C 574.764 287.345 567.704 315.84 567.704 315.84 C 567.704 315.84 556.184 285.205 518.157 280.77 Z " fill="rgb(255,255,255)"/></clipPath><g clip-path="url(#_clipPath_1UEmBD6QWSLOUvht1gZ49ct2PBBpjE3l)"><g><rect x="433.03" y="218.836" width="179.761" height="108.372" transform="matrix(1,0,0,1,0,0)" fill="rgb(124,78,196)"/></g></g><path d=" M 475.848 321.014 L 473.503 316.885 C 473.146 316.248 464.812 301.312 470.343 288.39 C 473.096 281.993 478.754 277.278 487.19 274.372 C 479.161 271.62 460.505 266.981 444.83 276.513 L 440.242 279.317 L 442.791 274.551 C 445.803 269.444 449.869 265.039 454.719 261.629 C 461.932 256.531 474.141 250.95 491.956 253.677 C 486.502 238.588 466.647 232.064 466.469 231.987 L 461.371 230.356 L 466.469 229.107 C 467.539 228.852 491.956 223.347 515.124 245.801 C 516.618 239.943 520.083 234.777 524.937 231.172 L 525.88 230.458 L 526.797 231.223 C 532.026 235.871 535.349 242.289 536.125 249.242 C 543.466 245.852 568.316 236.881 589.649 258.29 L 593.676 262.343 L 588.196 260.788 C 587.941 260.788 565.563 254.441 555.853 260.482 C 566.047 262.011 596.632 268.689 603.31 295.043 L 604.278 298.917 L 600.99 296.623 C 600.659 296.393 569.259 274.551 551.622 277.507 C 575.656 289.155 569.335 316.044 569.259 316.324 L 568.112 320.989 L 566.43 316.503 C 557.593 297.319 539.19 284.309 518.157 282.375 C 511.22 283.442 504.473 285.502 498.124 288.492 C 484.769 294.915 477.428 304.32 476.281 316.375 L 475.848 321.014 Z  M 466.8 267.746 C 475.646 267.841 484.383 269.713 492.491 273.251 L 496.289 275.035 L 492.211 276.055 C 482.347 278.603 475.925 283.064 473.121 289.588 C 469.833 297.235 472.178 306.002 474.166 311.125 C 480.691 284.134 517.494 279.368 518.004 279.317 L 518.361 279.317 C 538.771 281.287 556.924 293.12 566.965 310.998 C 567.628 302.791 566.404 285.918 546.575 278.654 L 543.185 277.278 L 546.499 275.774 C 561.485 268.944 589.19 285.307 599.053 291.678 C 589.241 265.783 552.488 262.954 552.106 262.929 L 549.2 262.725 L 551.061 260.482 C 557.611 252.555 574.254 254.62 583.149 256.429 C 560.67 238.588 535.769 252.632 535.488 252.785 L 533.245 254.085 L 533.245 251.536 C 533.091 245.043 530.434 238.861 525.829 234.281 C 521.313 237.935 518.39 243.197 517.673 248.962 L 517.52 252.453 L 515.098 249.905 C 499.042 233.083 481.634 231.146 472.917 231.376 C 480.181 234.816 492.313 242.31 495.524 255.155 L 496.085 257.423 L 493.791 256.99 C 468.814 252.25 454.77 264.076 448.832 271.136 C 454.537 268.826 460.645 267.674 466.8 267.746 L 466.8 267.746 Z " fill="rgb(94,56,131)"/><clipPath id="_clipPath_gAXdkJt3FxCSaIYA9c0iVhQAdVGAA5Kp"><path d=" M 580.065 588.35 L 579.632 588.35 C 572.454 586.511 566.607 581.318 563.932 574.408 C 563.619 573.65 563.66 572.792 564.045 572.067 C 564.429 571.343 565.117 570.827 565.92 570.662 C 567.553 570.264 569.234 571.105 569.896 572.65 C 571.809 577.522 575.909 581.207 580.957 582.59 C 582.568 582.975 583.653 584.483 583.506 586.132 C 582.978 587.553 581.577 588.456 580.065 588.35 Z  M 394.544 554.069 L 399.845 550.756 C 414.169 578.902 441.316 598.297 472.586 602.725 C 529.422 610.677 570.533 578.18 570.533 578.18 L 574.509 582.615 C 574.509 582.615 531.614 618.654 472.127 609.147 C 412.64 599.641 394.544 554.095 394.544 554.095 L 394.544 554.069 Z " fill="rgb(255,255,255)"/></clipPath><g clip-path="url(#_clipPath_gAXdkJt3FxCSaIYA9c0iVhQAdVGAA5Kp)"><g><rect x="383.482" y="539.72" width="210.983" height="82.094" transform="matrix(1,0,0,1,0,0)" fill="rgb(35,31,32)"/></g></g><clipPath id="_clipPath_afLno8RDRpiPzKCEf6Ze30dzAQMbVNHw"><path d=" M 333.298 518.26 C 347.673 538.369 371.529 547.009 383.941 538.165 C 396.353 529.321 396.328 502.356 381.953 482.221 C 367.578 462.086 344.13 456.122 331.539 465.195 C 318.949 474.269 318.923 498.15 333.298 518.26 Z " fill="rgb(255,255,255)"/></clipPath><g clip-path="url(#_clipPath_afLno8RDRpiPzKCEf6Ze30dzAQMbVNHw)"><g><g style="opacity:0.4;"><g opacity="0.4"><rect x="311.303" y="450.005" width="92.723" height="102.663" transform="matrix(1,0,0,1,0,0)" fill="rgb(124,78,196)"/></g></g></g></g><clipPath id="_clipPath_XJsAaiWCr2BuCYznSOgLnvxjUFQjDBus"><path d=" M 388.121 558.275 L 388.554 558.275 C 395.851 558.144 402.578 554.3 406.395 548.08 C 407.178 546.606 406.702 544.779 405.299 543.875 C 404.605 543.429 403.756 543.293 402.957 543.502 C 402.158 543.71 401.483 544.242 401.094 544.97 C 398.37 549.39 393.542 552.074 388.35 552.056 C 387.535 552.003 386.738 552.318 386.18 552.916 C 385.622 553.513 385.362 554.33 385.47 555.14 C 385.377 556.678 386.491 558.026 388.019 558.224" fill="rgb(255,255,255)"/></clipPath><g clip-path="url(#_clipPath_XJsAaiWCr2BuCYznSOgLnvxjUFQjDBus)"><g><rect x="374.409" y="532.405" width="43.558" height="36.931" transform="matrix(1,0,0,1,0,0)" fill="rgb(35,31,32)"/></g></g></g></g></svg>