<?xml version="1.0" standalone="no"?><!-- Generator: Gravit.io --><svg xmlns="http://www.w3.org/2000/svg" xmlns:xlink="http://www.w3.org/1999/xlink" style="isolation:isolate" viewBox="217.231 518 40 40" width="40px" height="40px"><g><circle vector-effect="non-scaling-stroke" cx="237.23146724700916" cy="537.9999999999998" r="20" fill="rgb(124,78,196)"/><clipPath id="_clipPath_brHunWnxl3oeAGqjoHomSrG1ePyyfuD0"><path d=" M 226.839 527.608 L 226.839 548.392 L 247.624 548.392 L 247.624 527.608 L 226.839 527.608 Z " fill="rgb(255,255,255)"/></clipPath><g clip-path="url(#_clipPath_brHunWnxl3oeAGqjoHomSrG1ePyyfuD0)"><path d=" M 247.624 546.794 C 247.624 547.227 247.466 547.601 247.149 547.918 C 246.833 548.234 246.458 548.392 246.025 548.392 C 245.575 548.392 245.201 548.234 244.901 547.918 L 240.616 543.646 C 239.126 544.678 237.465 545.195 235.633 545.195 C 234.442 545.195 233.303 544.964 232.216 544.501 C 231.13 544.039 230.193 543.415 229.406 542.628 C 228.619 541.841 227.995 540.904 227.532 539.817 C 227.07 538.731 226.839 537.592 226.839 536.401 C 226.839 535.21 227.07 534.072 227.532 532.985 C 227.995 531.898 228.619 530.961 229.406 530.175 C 230.193 529.388 231.13 528.763 232.216 528.301 C 233.303 527.839 234.442 527.608 235.633 527.608 C 236.823 527.608 237.962 527.839 239.049 528.301 C 240.136 528.763 241.072 529.388 241.859 530.175 C 242.646 530.961 243.271 531.898 243.733 532.985 C 244.195 534.072 244.426 535.21 244.426 536.401 C 244.426 538.233 243.91 539.894 242.877 541.385 L 247.162 545.669 C 247.47 545.977 247.624 546.352 247.624 546.794 Z  M 241.229 536.401 C 241.229 534.861 240.681 533.543 239.586 532.448 C 238.491 531.353 237.173 530.805 235.633 530.805 C 234.092 530.805 232.774 531.353 231.679 532.448 C 230.584 533.543 230.037 534.861 230.037 536.401 C 230.037 537.942 230.584 539.259 231.679 540.355 C 232.774 541.45 234.092 541.997 235.633 541.997 C 237.173 541.997 238.491 541.45 239.586 540.355 C 240.681 539.259 241.229 537.942 241.229 536.401 Z " fill="rgb(255,255,255)"/></g></g></svg>